<?xml version="1.0" encoding="UTF-8" standalone="no"?>
<!DOCTYPE svg PUBLIC "-//W3C//DTD SVG 1.1//EN"
 "http://www.w3.org/Graphics/SVG/1.1/DTD/svg11.dtd">
<!-- Generated by graphviz version 2.36.0 (20140111.2315)
 -->
<!-- Title: shapes.Shape Pages: 1 -->
<svg width="369pt" height="196pt"
 viewBox="0.00 0.00 369.00 196.00" xmlns="http://www.w3.org/2000/svg" xmlns:xlink="http://www.w3.org/1999/xlink">
<g id="graph0" class="graph" transform="scale(1 1) rotate(0) translate(4 192)">
<title>shapes.Shape</title>
<polygon fill="white" stroke="none" points="-4,4 -4,-192 365,-192 365,4 -4,4"/>
<!-- Node1 -->
<g id="node1" class="node"><title>Node1</title>
<polygon fill="#bfbfbf" stroke="black" points="96.5,-112.5 96.5,-131.5 175.5,-131.5 175.5,-112.5 96.5,-112.5"/>
<text text-anchor="middle" x="136" y="-119.5" font-family="Helvetica,sans-Serif" font-size="10.00">shapes.Shape</text>
</g>
<!-- Node3 -->
<g id="node3" class="node"><title>Node3</title>
<g id="a_node3"><a xlink:href="classshapes_1_1Circle.html" target="_top" xlink:title="shapes.Circle">
<polygon fill="white" stroke="black" points="-0.5,-56.5 -0.5,-75.5 76.5,-75.5 76.5,-56.5 -0.5,-56.5"/>
<text text-anchor="middle" x="38" y="-63.5" font-family="Helvetica,sans-Serif" font-size="10.00">shapes.Circle</text>
</a>
</g>
</g>
<!-- Node1&#45;&gt;Node3 -->
<g id="edge2" class="edge"><title>Node1&#45;&gt;Node3</title>
<path fill="none" stroke="midnightblue" d="M111.414,-107.453C93.3219,-97.4835 69.2654,-84.2279 53.7063,-75.6545"/>
<polygon fill="midnightblue" stroke="midnightblue" points="109.807,-110.563 120.255,-112.324 113.185,-104.432 109.807,-110.563"/>
</g>
<!-- Node4 -->
<g id="node4" class="node"><title>Node4</title>
<g id="a_node4"><a xlink:href="classshapes_1_1Square.html" target="_top" xlink:title="shapes.Square">
<polygon fill="white" stroke="black" points="95,-56.5 95,-75.5 177,-75.5 177,-56.5 95,-56.5"/>
<text text-anchor="middle" x="136" y="-63.5" font-family="Helvetica,sans-Serif" font-size="10.00">shapes.Square</text>
</a>
</g>
</g>
<!-- Node1&#45;&gt;Node4 -->
<g id="edge3" class="edge"><title>Node1&#45;&gt;Node4</title>
<path fill="none" stroke="midnightblue" d="M136,-101.805C136,-92.9102 136,-82.7798 136,-75.7511"/>
<polygon fill="midnightblue" stroke="midnightblue" points="132.5,-102.083 136,-112.083 139.5,-102.083 132.5,-102.083"/>
</g>
<!-- Node5 -->
<g id="node5" class="node"><title>Node5</title>
<g id="a_node5"><a xlink:href="classshapes_1_1Triangle.html" target="_top" xlink:title="shapes.Triangle">
<polygon fill="white" stroke="black" points="195,-56.5 195,-75.5 281,-75.5 281,-56.5 195,-56.5"/>
<text text-anchor="middle" x="238" y="-63.5" font-family="Helvetica,sans-Serif" font-size="10.00">shapes.Triangle</text>
</a>
</g>
</g>
<!-- Node1&#45;&gt;Node5 -->
<g id="edge4" class="edge"><title>Node1&#45;&gt;Node5</title>
<path fill="none" stroke="midnightblue" d="M161.331,-107.59C180.19,-97.6052 205.384,-84.2672 221.653,-75.6545"/>
<polygon fill="midnightblue" stroke="midnightblue" points="159.588,-104.552 152.388,-112.324 162.864,-110.738 159.588,-104.552"/>
</g>
<!-- Node2 -->
<g id="node2" class="node"><title>Node2</title>
<polygon fill="white" stroke="#bfbfbf" points="106,-168.5 106,-187.5 166,-187.5 166,-168.5 106,-168.5"/>
<text text-anchor="middle" x="136" y="-175.5" font-family="Helvetica,sans-Serif" font-size="10.00">Cloneable</text>
</g>
<!-- Node2&#45;&gt;Node1 -->
<g id="edge1" class="edge"><title>Node2&#45;&gt;Node1</title>
<path fill="none" stroke="midnightblue" d="M136,-157.805C136,-148.91 136,-138.78 136,-131.751"/>
<polygon fill="midnightblue" stroke="midnightblue" points="132.5,-158.083 136,-168.083 139.5,-158.083 132.5,-158.083"/>
</g>
<!-- Node6 -->
<g id="node6" class="node"><title>Node6</title>
<g id="a_node6"><a xlink:href="classshapes_1_1EquilateralTriangle.html" target="_top" xlink:title="shapes.EquilateralTriangle">
<polygon fill="white" stroke="black" points="103.5,-0.5 103.5,-19.5 234.5,-19.5 234.5,-0.5 103.5,-0.5"/>
<text text-anchor="middle" x="169" y="-7.5" font-family="Helvetica,sans-Serif" font-size="10.00">shapes.EquilateralTriangle</text>
</a>
</g>
</g>
<!-- Node5&#45;&gt;Node6 -->
<g id="edge5" class="edge"><title>Node5&#45;&gt;Node6</title>
<path fill="none" stroke="midnightblue" d="M218.962,-50.1008C206.544,-40.3824 190.757,-28.0269 180.288,-19.8339"/>
<polygon fill="midnightblue" stroke="midnightblue" points="216.882,-52.9171 226.914,-56.324 221.196,-47.4046 216.882,-52.9171"/>
</g>
<!-- Node7 -->
<g id="node7" class="node"><title>Node7</title>
<g id="a_node7"><a xlink:href="classshapes_1_1RightTriangle.html" target="_top" xlink:title="shapes.RightTriangle">
<polygon fill="white" stroke="black" points="252.5,-0.5 252.5,-19.5 361.5,-19.5 361.5,-0.5 252.5,-0.5"/>
<text text-anchor="middle" x="307" y="-7.5" font-family="Helvetica,sans-Serif" font-size="10.00">shapes.RightTriangle</text>
</a>
</g>
</g>
<!-- Node5&#45;&gt;Node7 -->
<g id="edge6" class="edge"><title>Node5&#45;&gt;Node7</title>
<path fill="none" stroke="midnightblue" d="M257.038,-50.1008C269.456,-40.3824 285.243,-28.0269 295.712,-19.8339"/>
<polygon fill="midnightblue" stroke="midnightblue" points="254.804,-47.4046 249.086,-56.324 259.118,-52.9171 254.804,-47.4046"/>
</g>
</g>
</svg>
