<?xml version="1.0" encoding="UTF-8" standalone="no"?>
<!DOCTYPE svg PUBLIC "-//W3C//DTD SVG 1.1//EN"
 "http://www.w3.org/Graphics/SVG/1.1/DTD/svg11.dtd">
<!-- Generated by graphviz version 2.36.0 (20140111.2315)
 -->
<!-- Title: utilities.Utilities.heading Pages: 1 -->
<svg width="310pt" height="77pt"
 viewBox="0.00 0.00 310.00 77.00" xmlns="http://www.w3.org/2000/svg" xmlns:xlink="http://www.w3.org/1999/xlink">
<g id="graph0" class="graph" transform="scale(1 1) rotate(0) translate(4 73)">
<title>utilities.Utilities.heading</title>
<polygon fill="white" stroke="none" points="-4,4 -4,-73 306,-73 306,4 -4,4"/>
<!-- Node1 -->
<g id="node1" class="node"><title>Node1</title>
<polygon fill="#bfbfbf" stroke="black" points="0,-27.5 0,-46.5 120,-46.5 120,-27.5 0,-27.5"/>
<text text-anchor="middle" x="60" y="-34.5" font-family="Helvetica,sans-Serif" font-size="10.00">utilities.Utilities.heading</text>
</g>
<!-- Node2 -->
<g id="node2" class="node"><title>Node2</title>
<g id="a_node2"><a xlink:href="classutilities_1_1Utilities.html#aad0367a70cee20da9e432d5f1e995f55" target="_top" xlink:title="utilities.Utilities.horizontalLine">
<polygon fill="white" stroke="black" points="156,-49.5 156,-68.5 302,-68.5 302,-49.5 156,-49.5"/>
<text text-anchor="middle" x="229" y="-56.5" font-family="Helvetica,sans-Serif" font-size="10.00">utilities.Utilities.horizontalLine</text>
</a>
</g>
</g>
<!-- Node1&#45;&gt;Node2 -->
<g id="edge1" class="edge"><title>Node1&#45;&gt;Node2</title>
<path fill="none" stroke="midnightblue" d="M120.348,-44.8183C128.636,-45.9102 137.272,-47.0478 145.888,-48.1828"/>
<polygon fill="midnightblue" stroke="midnightblue" points="145.599,-51.675 155.971,-49.5111 146.514,-44.735 145.599,-51.675"/>
</g>
<!-- Node3 -->
<g id="node3" class="node"><title>Node3</title>
<g id="a_node3"><a xlink:href="classutilities_1_1Utilities.html#a480f7eb4707ff60183ee95387126432c" target="_top" xlink:title="utilities.Utilities.centered\lTitle">
<polygon fill="white" stroke="black" points="167,-0 167,-30 291,-30 291,-0 167,-0"/>
<text text-anchor="start" x="175" y="-18" font-family="Helvetica,sans-Serif" font-size="10.00">utilities.Utilities.centered</text>
<text text-anchor="middle" x="229" y="-7" font-family="Helvetica,sans-Serif" font-size="10.00">Title</text>
</a>
</g>
</g>
<!-- Node1&#45;&gt;Node3 -->
<g id="edge2" class="edge"><title>Node1&#45;&gt;Node3</title>
<path fill="none" stroke="midnightblue" d="M120.348,-29.1817C132.14,-27.6282 144.636,-25.9821 156.777,-24.3827"/>
<polygon fill="midnightblue" stroke="midnightblue" points="157.412,-27.8294 166.869,-23.0532 156.498,-20.8893 157.412,-27.8294"/>
</g>
</g>
</svg>
