<?xml version="1.0" encoding="UTF-8" standalone="no"?>
<!DOCTYPE svg PUBLIC "-//W3C//DTD SVG 1.1//EN"
 "http://www.w3.org/Graphics/SVG/1.1/DTD/svg11.dtd">
<!-- Generated by graphviz version 2.36.0 (20140111.2315)
 -->
<!-- Title: ButtonExample.main Pages: 1 -->
<svg width="500pt" height="28pt"
 viewBox="0.00 0.00 500.00 28.00" xmlns="http://www.w3.org/2000/svg" xmlns:xlink="http://www.w3.org/1999/xlink">
<g id="graph0" class="graph" transform="scale(1 1) rotate(0) translate(4 24)">
<title>ButtonExample.main</title>
<polygon fill="white" stroke="none" points="-4,4 -4,-24 496,-24 496,4 -4,4"/>
<!-- Node1 -->
<g id="node1" class="node"><title>Node1</title>
<polygon fill="#bfbfbf" stroke="black" points="0.5,-0.5 0.5,-19.5 107.5,-19.5 107.5,-0.5 0.5,-0.5"/>
<text text-anchor="middle" x="54" y="-7.5" font-family="Helvetica,sans-Serif" font-size="10.00">ButtonExample.main</text>
</g>
<!-- Node2 -->
<g id="node2" class="node"><title>Node2</title>
<g id="a_node2"><a xlink:href="classButtonExample.html#a8deb1f40ed962d7cc56ac1180841db1b" target="_top" xlink:title="ButtonExample.ButtonExample">
<polygon fill="white" stroke="black" points="144.5,-0.5 144.5,-19.5 297.5,-19.5 297.5,-0.5 144.5,-0.5"/>
<text text-anchor="middle" x="221" y="-7.5" font-family="Helvetica,sans-Serif" font-size="10.00">ButtonExample.ButtonExample</text>
</a>
</g>
</g>
<!-- Node1&#45;&gt;Node2 -->
<g id="edge1" class="edge"><title>Node1&#45;&gt;Node2</title>
<path fill="none" stroke="midnightblue" d="M107.661,-10C116.158,-10 125.143,-10 134.181,-10"/>
<polygon fill="midnightblue" stroke="midnightblue" points="134.385,-13.5001 144.385,-10 134.385,-6.5001 134.385,-13.5001"/>
</g>
<!-- Node3 -->
<g id="node3" class="node"><title>Node3</title>
<g id="a_node3"><a xlink:href="classButtonExample.html#a23d735678076a5ab3470c035e8025a66" target="_top" xlink:title="ButtonExample.displayMessage">
<polygon fill="white" stroke="black" points="334.5,-0.5 334.5,-19.5 491.5,-19.5 491.5,-0.5 334.5,-0.5"/>
<text text-anchor="middle" x="413" y="-7.5" font-family="Helvetica,sans-Serif" font-size="10.00">ButtonExample.displayMessage</text>
</a>
</g>
</g>
<!-- Node2&#45;&gt;Node3 -->
<g id="edge2" class="edge"><title>Node2&#45;&gt;Node3</title>
<path fill="none" stroke="midnightblue" d="M297.639,-10C306.436,-10 315.465,-10 324.405,-10"/>
<polygon fill="midnightblue" stroke="midnightblue" points="324.445,-13.5001 334.445,-10 324.445,-6.5001 324.445,-13.5001"/>
</g>
</g>
</svg>
