<?xml version="1.0" encoding="UTF-8" standalone="no"?>
<!DOCTYPE svg PUBLIC "-//W3C//DTD SVG 1.1//EN"
 "http://www.w3.org/Graphics/SVG/1.1/DTD/svg11.dtd">
<!-- Generated by graphviz version 2.36.0 (20140111.2315)
 -->
<!-- Title: edu.odu.cs.tkennedy.utilities.Utilities.seperatedHeading Pages: 1 -->
<svg width="332pt" height="87pt"
 viewBox="0.00 0.00 332.00 87.00" xmlns="http://www.w3.org/2000/svg" xmlns:xlink="http://www.w3.org/1999/xlink">
<g id="graph0" class="graph" transform="scale(1 1) rotate(0) translate(4 83)">
<title>edu.odu.cs.tkennedy.utilities.Utilities.seperatedHeading</title>
<polygon fill="white" stroke="none" points="-4,4 -4,-83 328,-83 328,4 -4,4"/>
<!-- Node1 -->
<g id="node1" class="node"><title>Node1</title>
<polygon fill="#bfbfbf" stroke="black" points="0,-24 0,-54 144,-54 144,-24 0,-24"/>
<text text-anchor="start" x="8" y="-42" font-family="Helvetica,sans-Serif" font-size="10.00">edu.odu.cs.tkennedy.utilities.</text>
<text text-anchor="middle" x="72" y="-31" font-family="Helvetica,sans-Serif" font-size="10.00">Utilities.seperatedHeading</text>
</g>
<!-- Node2 -->
<g id="node2" class="node"><title>Node2</title>
<g id="a_node2"><a xlink:href="classedu_1_1odu_1_1cs_1_1tkennedy_1_1utilities_1_1Utilities.html#a45f0bc7707b421cf36bcb3303db3eb59" target="_top" xlink:title="edu.odu.cs.tkennedy.utilities.\lUtilities.centeredTitle">
<polygon fill="white" stroke="black" points="180,-49 180,-79 324,-79 324,-49 180,-49"/>
<text text-anchor="start" x="188" y="-67" font-family="Helvetica,sans-Serif" font-size="10.00">edu.odu.cs.tkennedy.utilities.</text>
<text text-anchor="middle" x="252" y="-56" font-family="Helvetica,sans-Serif" font-size="10.00">Utilities.centeredTitle</text>
</a>
</g>
</g>
<!-- Node1&#45;&gt;Node2 -->
<g id="edge1" class="edge"><title>Node1&#45;&gt;Node2</title>
<path fill="none" stroke="midnightblue" d="M144.118,-48.9884C152.609,-50.181 161.327,-51.4054 169.944,-52.6158"/>
<polygon fill="midnightblue" stroke="midnightblue" points="169.606,-56.1025 179.995,-54.0274 170.579,-49.1705 169.606,-56.1025"/>
</g>
<!-- Node3 -->
<g id="node3" class="node"><title>Node3</title>
<g id="a_node3"><a xlink:href="classedu_1_1odu_1_1cs_1_1tkennedy_1_1utilities_1_1Utilities.html#ad6eead56400fe9cc2c12eb76214ef5b6" target="_top" xlink:title="edu.odu.cs.tkennedy.utilities.\lUtilities.horizontalLine">
<polygon fill="white" stroke="black" points="180,-0 180,-30 324,-30 324,-0 180,-0"/>
<text text-anchor="start" x="188" y="-18" font-family="Helvetica,sans-Serif" font-size="10.00">edu.odu.cs.tkennedy.utilities.</text>
<text text-anchor="middle" x="252" y="-7" font-family="Helvetica,sans-Serif" font-size="10.00">Utilities.horizontalLine</text>
</a>
</g>
</g>
<!-- Node1&#45;&gt;Node3 -->
<g id="edge2" class="edge"><title>Node1&#45;&gt;Node3</title>
<path fill="none" stroke="midnightblue" d="M144.118,-29.4111C152.609,-28.2662 161.327,-27.0908 169.944,-25.9288"/>
<polygon fill="midnightblue" stroke="midnightblue" points="170.553,-29.3786 179.995,-24.5737 169.617,-22.4414 170.553,-29.3786"/>
</g>
</g>
</svg>
