<?xml version="1.0" encoding="UTF-8" standalone="no"?>
<!DOCTYPE svg PUBLIC "-//W3C//DTD SVG 1.1//EN"
 "http://www.w3.org/Graphics/SVG/1.1/DTD/svg11.dtd">
<!-- Generated by graphviz version 2.36.0 (20140111.2315)
 -->
<!-- Title: edu.odu.cs.cs330.examples.shapes.RightTriangle.clone Pages: 1 -->
<svg width="820pt" height="38pt"
 viewBox="0.00 0.00 820.00 38.00" xmlns="http://www.w3.org/2000/svg" xmlns:xlink="http://www.w3.org/1999/xlink">
<g id="graph0" class="graph" transform="scale(1 1) rotate(0) translate(4 34)">
<title>edu.odu.cs.cs330.examples.shapes.RightTriangle.clone</title>
<polygon fill="white" stroke="none" points="-4,4 -4,-34 816,-34 816,4 -4,4"/>
<!-- Node1 -->
<g id="node1" class="node"><title>Node1</title>
<polygon fill="#bfbfbf" stroke="black" points="0,-0 0,-30 176,-30 176,-0 0,-0"/>
<text text-anchor="start" x="8" y="-18" font-family="Helvetica,sans-Serif" font-size="10.00">edu.odu.cs.cs330.examples.shapes.</text>
<text text-anchor="middle" x="88" y="-7" font-family="Helvetica,sans-Serif" font-size="10.00">RightTriangle.clone</text>
</g>
<!-- Node2 -->
<g id="node2" class="node"><title>Node2</title>
<g id="a_node2"><a xlink:href="classedu_1_1odu_1_1cs_1_1cs330_1_1examples_1_1shapes_1_1RightTriangle.html#a099838a847a6a353bac67566f12104f3" target="_top" xlink:title="edu.odu.cs.cs330.examples.shapes.\lRightTriangle.RightTriangle">
<polygon fill="white" stroke="black" points="212,-0 212,-30 388,-30 388,-0 212,-0"/>
<text text-anchor="start" x="220" y="-18" font-family="Helvetica,sans-Serif" font-size="10.00">edu.odu.cs.cs330.examples.shapes.</text>
<text text-anchor="middle" x="300" y="-7" font-family="Helvetica,sans-Serif" font-size="10.00">RightTriangle.RightTriangle</text>
</a>
</g>
</g>
<!-- Node1&#45;&gt;Node2 -->
<g id="edge1" class="edge"><title>Node1&#45;&gt;Node2</title>
<path fill="none" stroke="midnightblue" d="M176.235,-15C184.567,-15 193.052,-15 201.474,-15"/>
<polygon fill="midnightblue" stroke="midnightblue" points="201.699,-18.5001 211.699,-15 201.699,-11.5001 201.699,-18.5001"/>
</g>
<!-- Node3 -->
<g id="node3" class="node"><title>Node3</title>
<g id="a_node3"><a xlink:href="classedu_1_1odu_1_1cs_1_1cs330_1_1examples_1_1shapes_1_1RightTriangle.html#a8261909c2b50f8dc6b05a58041dc36ca" target="_top" xlink:title="edu.odu.cs.cs330.examples.shapes.\lRightTriangle.computeHypotenuse">
<polygon fill="white" stroke="black" points="424,-0 424,-30 600,-30 600,-0 424,-0"/>
<text text-anchor="start" x="432" y="-18" font-family="Helvetica,sans-Serif" font-size="10.00">edu.odu.cs.cs330.examples.shapes.</text>
<text text-anchor="middle" x="512" y="-7" font-family="Helvetica,sans-Serif" font-size="10.00">RightTriangle.computeHypotenuse</text>
</a>
</g>
</g>
<!-- Node2&#45;&gt;Node3 -->
<g id="edge2" class="edge"><title>Node2&#45;&gt;Node3</title>
<path fill="none" stroke="midnightblue" d="M388.235,-15C396.567,-15 405.052,-15 413.474,-15"/>
<polygon fill="midnightblue" stroke="midnightblue" points="413.699,-18.5001 423.699,-15 413.699,-11.5001 413.699,-18.5001"/>
</g>
<!-- Node4 -->
<g id="node4" class="node"><title>Node4</title>
<g id="a_node4"><a xlink:href="classedu_1_1odu_1_1cs_1_1cs330_1_1examples_1_1shapes_1_1RightTriangle.html#a515e57eb6d69c83770c7d0ee72628c02" target="_top" xlink:title="edu.odu.cs.cs330.examples.shapes.\lRightTriangle.base">
<polygon fill="white" stroke="black" points="636,-0 636,-30 812,-30 812,-0 636,-0"/>
<text text-anchor="start" x="644" y="-18" font-family="Helvetica,sans-Serif" font-size="10.00">edu.odu.cs.cs330.examples.shapes.</text>
<text text-anchor="middle" x="724" y="-7" font-family="Helvetica,sans-Serif" font-size="10.00">RightTriangle.base</text>
</a>
</g>
</g>
<!-- Node3&#45;&gt;Node4 -->
<g id="edge3" class="edge"><title>Node3&#45;&gt;Node4</title>
<path fill="none" stroke="midnightblue" d="M600.235,-15C608.567,-15 617.052,-15 625.474,-15"/>
<polygon fill="midnightblue" stroke="midnightblue" points="625.699,-18.5001 635.699,-15 625.699,-11.5001 625.699,-18.5001"/>
</g>
</g>
</svg>
