<?xml version="1.0" encoding="UTF-8" standalone="no"?>
<!DOCTYPE svg PUBLIC "-//W3C//DTD SVG 1.1//EN"
 "http://www.w3.org/Graphics/SVG/1.1/DTD/svg11.dtd">
<!-- Generated by graphviz version 2.36.0 (20140111.2315)
 -->
<!-- Title: edu.odu.cs.cs330.examples.shapes.Triangle.area Pages: 1 -->
<svg width="396pt" height="185pt"
 viewBox="0.00 0.00 396.00 185.00" xmlns="http://www.w3.org/2000/svg" xmlns:xlink="http://www.w3.org/1999/xlink">
<g id="graph0" class="graph" transform="scale(1 1) rotate(0) translate(4 181)">
<title>edu.odu.cs.cs330.examples.shapes.Triangle.area</title>
<polygon fill="white" stroke="none" points="-4,4 -4,-181 392,-181 392,4 -4,4"/>
<!-- Node1 -->
<g id="node1" class="node"><title>Node1</title>
<polygon fill="#bfbfbf" stroke="black" points="0,-73 0,-103 176,-103 176,-73 0,-73"/>
<text text-anchor="start" x="8" y="-91" font-family="Helvetica,sans-Serif" font-size="10.00">edu.odu.cs.cs330.examples.shapes.</text>
<text text-anchor="middle" x="88" y="-80" font-family="Helvetica,sans-Serif" font-size="10.00">Triangle.area</text>
</g>
<!-- Node2 -->
<g id="node2" class="node"><title>Node2</title>
<g id="a_node2"><a xlink:href="classedu_1_1odu_1_1cs_1_1cs330_1_1examples_1_1shapes_1_1Triangle.html#a23609916fbab6c849dd064c89a765ba0" target="_top" xlink:title="edu.odu.cs.cs330.examples.shapes.\lTriangle.perimeter">
<polygon fill="white" stroke="black" points="212,-147 212,-177 388,-177 388,-147 212,-147"/>
<text text-anchor="start" x="220" y="-165" font-family="Helvetica,sans-Serif" font-size="10.00">edu.odu.cs.cs330.examples.shapes.</text>
<text text-anchor="middle" x="300" y="-154" font-family="Helvetica,sans-Serif" font-size="10.00">Triangle.perimeter</text>
</a>
</g>
</g>
<!-- Node1&#45;&gt;Node2 -->
<g id="edge1" class="edge"><title>Node1&#45;&gt;Node2</title>
<path fill="none" stroke="midnightblue" d="M124.176,-103.093C148.588,-113.3 181.985,-126.737 212,-137 218.952,-139.377 226.266,-141.72 233.578,-143.961"/>
<polygon fill="midnightblue" stroke="midnightblue" points="232.93,-147.421 243.514,-146.948 234.946,-140.717 232.93,-147.421"/>
</g>
<!-- Node3 -->
<g id="node3" class="node"><title>Node3</title>
<g id="a_node3"><a xlink:href="classedu_1_1odu_1_1cs_1_1cs330_1_1examples_1_1shapes_1_1Triangle.html#a67b7da094142c627aaac0c34d20bd9a6" target="_top" xlink:title="edu.odu.cs.cs330.examples.shapes.\lTriangle.sideA">
<polygon fill="white" stroke="black" points="212,-98 212,-128 388,-128 388,-98 212,-98"/>
<text text-anchor="start" x="220" y="-116" font-family="Helvetica,sans-Serif" font-size="10.00">edu.odu.cs.cs330.examples.shapes.</text>
<text text-anchor="middle" x="300" y="-105" font-family="Helvetica,sans-Serif" font-size="10.00">Triangle.sideA</text>
</a>
</g>
</g>
<!-- Node1&#45;&gt;Node3 -->
<g id="edge2" class="edge"><title>Node1&#45;&gt;Node3</title>
<path fill="none" stroke="midnightblue" d="M176.235,-98.3851C184.658,-99.3879 193.239,-100.409 201.751,-101.423"/>
<polygon fill="midnightblue" stroke="midnightblue" points="201.355,-104.9 211.699,-102.607 202.183,-97.9494 201.355,-104.9"/>
</g>
<!-- Node4 -->
<g id="node4" class="node"><title>Node4</title>
<g id="a_node4"><a xlink:href="classedu_1_1odu_1_1cs_1_1cs330_1_1examples_1_1shapes_1_1Triangle.html#a43386642b7a0e3d616ef168c47b0a055" target="_top" xlink:title="edu.odu.cs.cs330.examples.shapes.\lTriangle.sideB">
<polygon fill="white" stroke="black" points="212,-49 212,-79 388,-79 388,-49 212,-49"/>
<text text-anchor="start" x="220" y="-67" font-family="Helvetica,sans-Serif" font-size="10.00">edu.odu.cs.cs330.examples.shapes.</text>
<text text-anchor="middle" x="300" y="-56" font-family="Helvetica,sans-Serif" font-size="10.00">Triangle.sideB</text>
</a>
</g>
</g>
<!-- Node1&#45;&gt;Node4 -->
<g id="edge3" class="edge"><title>Node1&#45;&gt;Node4</title>
<path fill="none" stroke="midnightblue" d="M176.235,-78.0303C184.658,-77.0676 193.239,-76.087 201.751,-75.1142"/>
<polygon fill="midnightblue" stroke="midnightblue" points="202.161,-78.5902 211.699,-73.9773 201.366,-71.6354 202.161,-78.5902"/>
</g>
<!-- Node5 -->
<g id="node5" class="node"><title>Node5</title>
<g id="a_node5"><a xlink:href="classedu_1_1odu_1_1cs_1_1cs330_1_1examples_1_1shapes_1_1Triangle.html#a24aababaaf3a306215a059e3000c9ccc" target="_top" xlink:title="edu.odu.cs.cs330.examples.shapes.\lTriangle.sideC">
<polygon fill="white" stroke="black" points="212,-0 212,-30 388,-30 388,-0 212,-0"/>
<text text-anchor="start" x="220" y="-18" font-family="Helvetica,sans-Serif" font-size="10.00">edu.odu.cs.cs330.examples.shapes.</text>
<text text-anchor="middle" x="300" y="-7" font-family="Helvetica,sans-Serif" font-size="10.00">Triangle.sideC</text>
</a>
</g>
</g>
<!-- Node1&#45;&gt;Node5 -->
<g id="edge4" class="edge"><title>Node1&#45;&gt;Node5</title>
<path fill="none" stroke="midnightblue" d="M125.006,-72.9364C149.357,-63.0002 182.358,-50.0189 212,-40 218.96,-37.6475 226.28,-35.3205 233.595,-33.0881"/>
<polygon fill="midnightblue" stroke="midnightblue" points="234.96,-36.3329 243.534,-30.1091 232.95,-29.6277 234.96,-36.3329"/>
</g>
</g>
</svg>
