<?xml version="1.0" encoding="UTF-8" standalone="no"?>
<!DOCTYPE svg PUBLIC "-//W3C//DTD SVG 1.1//EN"
 "http://www.w3.org/Graphics/SVG/1.1/DTD/svg11.dtd">
<!-- Generated by graphviz version 2.36.0 (20140111.2315)
 -->
<!-- Title: edu.odu.cs.cs330.examples.shapes.EquilateralTriangle Pages: 1 -->
<svg width="279pt" height="232pt"
 viewBox="0.00 0.00 279.00 232.00" xmlns="http://www.w3.org/2000/svg" xmlns:xlink="http://www.w3.org/1999/xlink">
<g id="graph0" class="graph" transform="scale(1 1) rotate(0) translate(4 228)">
<title>edu.odu.cs.cs330.examples.shapes.EquilateralTriangle</title>
<polygon fill="white" stroke="none" points="-4,4 -4,-228 275,-228 275,4 -4,4"/>
<!-- Node1 -->
<g id="node1" class="node"><title>Node1</title>
<polygon fill="#bfbfbf" stroke="black" points="0,-1 0,-31 176,-31 176,-1 0,-1"/>
<text text-anchor="start" x="8" y="-19" font-family="Helvetica,sans-Serif" font-size="10.00">edu.odu.cs.cs330.examples.shapes.</text>
<text text-anchor="middle" x="88" y="-8" font-family="Helvetica,sans-Serif" font-size="10.00">EquilateralTriangle</text>
</g>
<!-- Node2 -->
<g id="node2" class="node"><title>Node2</title>
<g id="a_node2"><a xlink:href="classedu_1_1odu_1_1cs_1_1cs330_1_1examples_1_1shapes_1_1Triangle.html" target="_top" xlink:title="edu.odu.cs.cs330.examples.shapes.\lTriangle">
<polygon fill="white" stroke="black" points="58,-69 58,-99 234,-99 234,-69 58,-69"/>
<text text-anchor="start" x="66" y="-87" font-family="Helvetica,sans-Serif" font-size="10.00">edu.odu.cs.cs330.examples.shapes.</text>
<text text-anchor="middle" x="146" y="-76" font-family="Helvetica,sans-Serif" font-size="10.00">Triangle</text>
</a>
</g>
</g>
<!-- Node2&#45;&gt;Node1 -->
<g id="edge1" class="edge"><title>Node2&#45;&gt;Node1</title>
<path fill="none" stroke="midnightblue" d="M126.58,-60.9013C117.998,-51.1362 108.156,-39.9363 100.561,-31.2931"/>
<polygon fill="midnightblue" stroke="midnightblue" points="124.185,-63.4777 133.415,-68.679 129.443,-58.8569 124.185,-63.4777"/>
</g>
<!-- Node3 -->
<g id="node3" class="node"><title>Node3</title>
<g id="a_node3"><a xlink:href="classedu_1_1odu_1_1cs_1_1cs330_1_1examples_1_1shapes_1_1Shape.html" target="_top" xlink:title="edu.odu.cs.cs330.examples.shapes.\lShape">
<polygon fill="white" stroke="black" points="96,-137 96,-167 272,-167 272,-137 96,-137"/>
<text text-anchor="start" x="104" y="-155" font-family="Helvetica,sans-Serif" font-size="10.00">edu.odu.cs.cs330.examples.shapes.</text>
<text text-anchor="middle" x="184" y="-144" font-family="Helvetica,sans-Serif" font-size="10.00">Shape</text>
</a>
</g>
</g>
<!-- Node3&#45;&gt;Node2 -->
<g id="edge2" class="edge"><title>Node3&#45;&gt;Node2</title>
<path fill="none" stroke="midnightblue" d="M170.598,-127.723C165.141,-118.244 159.007,-107.591 154.229,-99.2931"/>
<polygon fill="midnightblue" stroke="midnightblue" points="167.732,-129.759 175.755,-136.679 173.798,-126.266 167.732,-129.759"/>
</g>
<!-- Node4 -->
<g id="node4" class="node"><title>Node4</title>
<polygon fill="white" stroke="#bfbfbf" points="38,-204.5 38,-223.5 98,-223.5 98,-204.5 38,-204.5"/>
<text text-anchor="middle" x="68" y="-211.5" font-family="Helvetica,sans-Serif" font-size="10.00">Cloneable</text>
</g>
<!-- Node4&#45;&gt;Node1 -->
<g id="edge5" class="edge"><title>Node4&#45;&gt;Node1</title>
<path fill="none" stroke="midnightblue" d="M60.4168,-194.563C50.0128,-166.506 34.1946,-111.734 49,-68 53.7894,-53.8526 64.2503,-40.5425 73.1332,-31.0692"/>
<polygon fill="midnightblue" stroke="midnightblue" points="57.2949,-196.191 64.1895,-204.236 63.8164,-193.648 57.2949,-196.191"/>
</g>
<!-- Node4&#45;&gt;Node2 -->
<g id="edge4" class="edge"><title>Node4&#45;&gt;Node2</title>
<path fill="none" stroke="midnightblue" d="M69.4146,-194.278C71.3685,-177.878 76.0075,-153.931 87,-136 96.1286,-121.11 111.039,-108.276 123.586,-99.2071"/>
<polygon fill="midnightblue" stroke="midnightblue" points="65.9283,-193.968 68.4458,-204.259 72.8956,-194.644 65.9283,-193.968"/>
</g>
<!-- Node4&#45;&gt;Node3 -->
<g id="edge3" class="edge"><title>Node4&#45;&gt;Node3</title>
<path fill="none" stroke="midnightblue" d="M93.7212,-199.696C112.396,-190.036 137.622,-176.989 156.661,-167.141"/>
<polygon fill="midnightblue" stroke="midnightblue" points="91.8942,-196.7 84.62,-204.403 95.1102,-202.918 91.8942,-196.7"/>
</g>
</g>
</svg>
