<?xml version="1.0" encoding="UTF-8" standalone="no"?>
<!DOCTYPE svg PUBLIC "-//W3C//DTD SVG 1.1//EN"
 "http://www.w3.org/Graphics/SVG/1.1/DTD/svg11.dtd">
<!-- Generated by graphviz version 2.36.0 (20140111.2315)
 -->
<!-- Title: edu.odu.cs.cs330.examples.shapes.ShapeFactory.ShapePair Pages: 1 -->
<svg width="182pt" height="178pt"
 viewBox="0.00 0.00 182.00 178.00" xmlns="http://www.w3.org/2000/svg" xmlns:xlink="http://www.w3.org/1999/xlink">
<g id="graph0" class="graph" transform="scale(1 1) rotate(0) translate(4 174)">
<title>edu.odu.cs.cs330.examples.shapes.ShapeFactory.ShapePair</title>
<polygon fill="white" stroke="none" points="-4,4 -4,-174 178,-174 178,4 -4,4"/>
<!-- Node1 -->
<g id="node1" class="node"><title>Node1</title>
<polygon fill="#bfbfbf" stroke="black" points="-1,-1 -1,-31 175,-31 175,-1 -1,-1"/>
<text text-anchor="start" x="7" y="-19" font-family="Helvetica,sans-Serif" font-size="10.00">edu.odu.cs.cs330.examples.shapes.</text>
<text text-anchor="middle" x="87" y="-8" font-family="Helvetica,sans-Serif" font-size="10.00">ShapeFactory.ShapePair</text>
</g>
<!-- Node2 -->
<g id="node2" class="node"><title>Node2</title>
<g id="a_node2"><a xlink:href="classedu_1_1odu_1_1cs_1_1cs330_1_1examples_1_1shapes_1_1Shape.html" target="_top" xlink:title="edu.odu.cs.cs330.examples.shapes.\lShape">
<polygon fill="white" stroke="black" points="-1,-81 -1,-111 175,-111 175,-81 -1,-81"/>
<text text-anchor="start" x="7" y="-99" font-family="Helvetica,sans-Serif" font-size="10.00">edu.odu.cs.cs330.examples.shapes.</text>
<text text-anchor="middle" x="87" y="-88" font-family="Helvetica,sans-Serif" font-size="10.00">Shape</text>
</a>
</g>
</g>
<!-- Node2&#45;&gt;Node1 -->
<g id="edge1" class="edge"><title>Node2&#45;&gt;Node1</title>
<path fill="none" stroke="#9a32cd" stroke-dasharray="5,2" d="M87,-70.5644C87,-57.6243 87,-42.1862 87,-31.2157"/>
<polygon fill="#9a32cd" stroke="#9a32cd" points="83.5001,-70.6936 87,-80.6936 90.5001,-70.6936 83.5001,-70.6936"/>
<text text-anchor="middle" x="104.5" y="-53.5" font-family="Helvetica,sans-Serif" font-size="10.00"> _model</text>
</g>
<!-- Node3 -->
<g id="node3" class="node"><title>Node3</title>
<polygon fill="white" stroke="#bfbfbf" points="57,-150.5 57,-169.5 117,-169.5 117,-150.5 57,-150.5"/>
<text text-anchor="middle" x="87" y="-157.5" font-family="Helvetica,sans-Serif" font-size="10.00">Cloneable</text>
</g>
<!-- Node3&#45;&gt;Node2 -->
<g id="edge2" class="edge"><title>Node3&#45;&gt;Node2</title>
<path fill="none" stroke="midnightblue" d="M87,-140.183C87,-130.886 87,-119.851 87,-111.263"/>
<polygon fill="midnightblue" stroke="midnightblue" points="83.5001,-140.379 87,-150.379 90.5001,-140.379 83.5001,-140.379"/>
</g>
</g>
</svg>
