<?xml version="1.0" encoding="UTF-8" standalone="no"?>
<!DOCTYPE svg PUBLIC "-//W3C//DTD SVG 1.1//EN"
 "http://www.w3.org/Graphics/SVG/1.1/DTD/svg11.dtd">
<!-- Generated by graphviz version 2.36.0 (20140111.2315)
 -->
<!-- Title: edu.odu.cs.cs330.examples.RunShapes.main Pages: 1 -->
<svg width="578pt" height="185pt"
 viewBox="0.00 0.00 578.00 185.00" xmlns="http://www.w3.org/2000/svg" xmlns:xlink="http://www.w3.org/1999/xlink">
<g id="graph0" class="graph" transform="scale(1 1) rotate(0) translate(4 181)">
<title>edu.odu.cs.cs330.examples.RunShapes.main</title>
<polygon fill="white" stroke="none" points="-4,4 -4,-181 574,-181 574,4 -4,4"/>
<!-- Node1 -->
<g id="node1" class="node"><title>Node1</title>
<polygon fill="#bfbfbf" stroke="black" points="0,-73 0,-103 142,-103 142,-73 0,-73"/>
<text text-anchor="start" x="8" y="-91" font-family="Helvetica,sans-Serif" font-size="10.00">edu.odu.cs.cs330.examples.</text>
<text text-anchor="middle" x="71" y="-80" font-family="Helvetica,sans-Serif" font-size="10.00">RunShapes.main</text>
</g>
<!-- Node2 -->
<g id="node2" class="node"><title>Node2</title>
<g id="a_node2"><a xlink:href="classedu_1_1odu_1_1cs_1_1cs330_1_1examples_1_1RunShapes.html#a58a9ffa97014631c9d3da5550de884af" target="_top" xlink:title="edu.odu.cs.cs330.examples.\lRunShapes.readShapes">
<polygon fill="white" stroke="black" points="197,-147 197,-177 339,-177 339,-147 197,-147"/>
<text text-anchor="start" x="205" y="-165" font-family="Helvetica,sans-Serif" font-size="10.00">edu.odu.cs.cs330.examples.</text>
<text text-anchor="middle" x="268" y="-154" font-family="Helvetica,sans-Serif" font-size="10.00">RunShapes.readShapes</text>
</a>
</g>
</g>
<!-- Node1&#45;&gt;Node2 -->
<g id="edge1" class="edge"><title>Node1&#45;&gt;Node2</title>
<path fill="none" stroke="midnightblue" d="M101.166,-103.014C122.166,-113.443 151.371,-127.176 178,-137 184.475,-139.389 191.285,-141.68 198.136,-143.84"/>
<polygon fill="midnightblue" stroke="midnightblue" points="197.582,-147.33 208.168,-146.906 199.628,-140.636 197.582,-147.33"/>
</g>
<!-- Node3 -->
<g id="node3" class="node"><title>Node3</title>
<g id="a_node3"><a xlink:href="classedu_1_1odu_1_1cs_1_1cs330_1_1examples_1_1RunShapes.html#a7a1fe823b89f1cec3c4e808b81c8474e" target="_top" xlink:title="edu.odu.cs.cs330.examples.\lRunShapes.printShapes">
<polygon fill="white" stroke="black" points="197,-98 197,-128 339,-128 339,-98 197,-98"/>
<text text-anchor="start" x="205" y="-116" font-family="Helvetica,sans-Serif" font-size="10.00">edu.odu.cs.cs330.examples.</text>
<text text-anchor="middle" x="268" y="-105" font-family="Helvetica,sans-Serif" font-size="10.00">RunShapes.printShapes</text>
</a>
</g>
</g>
<!-- Node1&#45;&gt;Node3 -->
<g id="edge2" class="edge"><title>Node1&#45;&gt;Node3</title>
<path fill="none" stroke="midnightblue" d="M142.124,-96.9903C156.585,-98.8442 171.92,-100.81 186.709,-102.706"/>
<polygon fill="midnightblue" stroke="midnightblue" points="186.479,-106.205 196.843,-104.006 187.369,-99.2622 186.479,-106.205"/>
</g>
<!-- Node4 -->
<g id="node4" class="node"><title>Node4</title>
<g id="a_node4"><a xlink:href="classedu_1_1odu_1_1cs_1_1cs330_1_1examples_1_1RunShapes.html#a0de1c76a7f2bdb2c72c75a3d815919bc" target="_top" xlink:title="edu.odu.cs.cs330.examples.\lRunShapes.printShapeNames">
<polygon fill="white" stroke="black" points="193.5,-49 193.5,-79 342.5,-79 342.5,-49 193.5,-49"/>
<text text-anchor="start" x="201.5" y="-67" font-family="Helvetica,sans-Serif" font-size="10.00">edu.odu.cs.cs330.examples.</text>
<text text-anchor="middle" x="268" y="-56" font-family="Helvetica,sans-Serif" font-size="10.00">RunShapes.printShapeNames</text>
</a>
</g>
</g>
<!-- Node1&#45;&gt;Node4 -->
<g id="edge3" class="edge"><title>Node1&#45;&gt;Node4</title>
<path fill="none" stroke="midnightblue" d="M142.124,-79.3694C155.349,-77.7416 169.306,-76.0238 182.908,-74.3498"/>
<polygon fill="midnightblue" stroke="midnightblue" points="183.725,-77.7757 193.222,-73.0803 182.87,-70.8282 183.725,-77.7757"/>
</g>
<!-- Node5 -->
<g id="node5" class="node"><title>Node5</title>
<g id="a_node5"><a xlink:href="classedu_1_1odu_1_1cs_1_1cs330_1_1examples_1_1RunShapes.html#a06b314365878ceafb29e84899132c2d6" target="_top" xlink:title="edu.odu.cs.cs330.examples.\lRunShapes.findLargestShapeByArea">
<polygon fill="white" stroke="black" points="178.5,-0 178.5,-30 357.5,-30 357.5,-0 178.5,-0"/>
<text text-anchor="start" x="186.5" y="-18" font-family="Helvetica,sans-Serif" font-size="10.00">edu.odu.cs.cs330.examples.</text>
<text text-anchor="middle" x="268" y="-7" font-family="Helvetica,sans-Serif" font-size="10.00">RunShapes.findLargestShapeByArea</text>
</a>
</g>
</g>
<!-- Node1&#45;&gt;Node5 -->
<g id="edge4" class="edge"><title>Node1&#45;&gt;Node5</title>
<path fill="none" stroke="midnightblue" d="M102.107,-72.8919C123.051,-62.7493 151.807,-49.5469 178,-40 184.738,-37.5439 191.836,-35.1835 198.963,-32.9602"/>
<polygon fill="midnightblue" stroke="midnightblue" points="200.113,-36.2688 208.667,-30.0174 198.082,-29.57 200.113,-36.2688"/>
</g>
<!-- Node6 -->
<g id="node6" class="node"><title>Node6</title>
<g id="a_node6"><a xlink:href="classedu_1_1odu_1_1cs_1_1cs330_1_1examples_1_1shapes_1_1Shape.html#ad2f9706533f1ee2d2878ff25d918940d" target="_top" xlink:title="edu.odu.cs.cs330.examples.shapes.\lShape.area">
<polygon fill="white" stroke="black" points="394,-0 394,-30 570,-30 570,-0 394,-0"/>
<text text-anchor="start" x="402" y="-18" font-family="Helvetica,sans-Serif" font-size="10.00">edu.odu.cs.cs330.examples.shapes.</text>
<text text-anchor="middle" x="482" y="-7" font-family="Helvetica,sans-Serif" font-size="10.00">Shape.area</text>
</a>
</g>
</g>
<!-- Node5&#45;&gt;Node6 -->
<g id="edge5" class="edge"><title>Node5&#45;&gt;Node6</title>
<path fill="none" stroke="midnightblue" d="M357.679,-15C366.242,-15 374.96,-15 383.601,-15"/>
<polygon fill="midnightblue" stroke="midnightblue" points="383.696,-18.5001 393.696,-15 383.696,-11.5001 383.696,-18.5001"/>
</g>
</g>
</svg>
