<?xml version="1.0" encoding="UTF-8" standalone="no"?>
<!DOCTYPE svg PUBLIC "-//W3C//DTD SVG 1.1//EN"
 "http://www.w3.org/Graphics/SVG/1.1/DTD/svg11.dtd">
<!-- Generated by graphviz version 2.36.0 (20140111.2315)
 -->
<!-- Title: edu.odu.cs.cs330.examples.shapes.RightTriangle.read Pages: 1 -->
<svg width="608pt" height="126pt"
 viewBox="0.00 0.00 608.00 126.00" xmlns="http://www.w3.org/2000/svg" xmlns:xlink="http://www.w3.org/1999/xlink">
<g id="graph0" class="graph" transform="scale(1 1) rotate(0) translate(4 122)">
<title>edu.odu.cs.cs330.examples.shapes.RightTriangle.read</title>
<polygon fill="white" stroke="none" points="-4,4 -4,-122 604,-122 604,4 -4,4"/>
<!-- Node1 -->
<g id="node1" class="node"><title>Node1</title>
<polygon fill="#bfbfbf" stroke="black" points="0,-44 0,-74 176,-74 176,-44 0,-44"/>
<text text-anchor="start" x="8" y="-62" font-family="Helvetica,sans-Serif" font-size="10.00">edu.odu.cs.cs330.examples.shapes.</text>
<text text-anchor="middle" x="88" y="-51" font-family="Helvetica,sans-Serif" font-size="10.00">RightTriangle.read</text>
</g>
<!-- Node2 -->
<g id="node2" class="node"><title>Node2</title>
<g id="a_node2"><a xlink:href="classedu_1_1odu_1_1cs_1_1cs330_1_1examples_1_1shapes_1_1RightTriangle.html#a8261909c2b50f8dc6b05a58041dc36ca" target="_top" xlink:title="edu.odu.cs.cs330.examples.shapes.\lRightTriangle.computeHypotenuse">
<polygon fill="white" stroke="black" points="212,-88 212,-118 388,-118 388,-88 212,-88"/>
<text text-anchor="start" x="220" y="-106" font-family="Helvetica,sans-Serif" font-size="10.00">edu.odu.cs.cs330.examples.shapes.</text>
<text text-anchor="middle" x="300" y="-95" font-family="Helvetica,sans-Serif" font-size="10.00">RightTriangle.computeHypotenuse</text>
</a>
</g>
</g>
<!-- Node1&#45;&gt;Node2 -->
<g id="edge1" class="edge"><title>Node1&#45;&gt;Node2</title>
<path fill="none" stroke="midnightblue" d="M160.683,-74.0192C178.913,-77.8388 198.637,-81.9716 217.324,-85.8869"/>
<polygon fill="midnightblue" stroke="midnightblue" points="216.779,-89.3486 227.284,-87.9738 218.214,-82.4974 216.779,-89.3486"/>
</g>
<!-- Node3 -->
<g id="node3" class="node"><title>Node3</title>
<g id="a_node3"><a xlink:href="classedu_1_1odu_1_1cs_1_1cs330_1_1examples_1_1shapes_1_1RightTriangle.html#a515e57eb6d69c83770c7d0ee72628c02" target="_top" xlink:title="edu.odu.cs.cs330.examples.shapes.\lRightTriangle.base">
<polygon fill="white" stroke="black" points="424,-66 424,-96 600,-96 600,-66 424,-66"/>
<text text-anchor="start" x="432" y="-84" font-family="Helvetica,sans-Serif" font-size="10.00">edu.odu.cs.cs330.examples.shapes.</text>
<text text-anchor="middle" x="512" y="-73" font-family="Helvetica,sans-Serif" font-size="10.00">RightTriangle.base</text>
</a>
</g>
</g>
<!-- Node1&#45;&gt;Node3 -->
<g id="edge3" class="edge"><title>Node1&#45;&gt;Node3</title>
<path fill="none" stroke="midnightblue" d="M176.183,-63.5451C245.309,-67.1488 341.871,-72.1828 413.542,-75.9192"/>
<polygon fill="midnightblue" stroke="midnightblue" points="413.761,-79.4353 423.929,-76.4608 414.125,-72.4448 413.761,-79.4353"/>
</g>
<!-- Node4 -->
<g id="node4" class="node"><title>Node4</title>
<g id="a_node4"><a xlink:href="classedu_1_1odu_1_1cs_1_1cs330_1_1examples_1_1shapes_1_1RightTriangle.html#ab7259a047ec8f6171266aa35db2bbc8f" target="_top" xlink:title="edu.odu.cs.cs330.examples.shapes.\lRightTriangle.height">
<polygon fill="white" stroke="black" points="212,-0 212,-30 388,-30 388,-0 212,-0"/>
<text text-anchor="start" x="220" y="-18" font-family="Helvetica,sans-Serif" font-size="10.00">edu.odu.cs.cs330.examples.shapes.</text>
<text text-anchor="middle" x="300" y="-7" font-family="Helvetica,sans-Serif" font-size="10.00">RightTriangle.height</text>
</a>
</g>
</g>
<!-- Node1&#45;&gt;Node4 -->
<g id="edge4" class="edge"><title>Node1&#45;&gt;Node4</title>
<path fill="none" stroke="midnightblue" d="M160.683,-43.9808C178.913,-40.1612 198.637,-36.0284 217.324,-32.1131"/>
<polygon fill="midnightblue" stroke="midnightblue" points="218.214,-35.5026 227.284,-30.0262 216.779,-28.6514 218.214,-35.5026"/>
</g>
<!-- Node2&#45;&gt;Node3 -->
<g id="edge2" class="edge"><title>Node2&#45;&gt;Node3</title>
<path fill="none" stroke="midnightblue" d="M388.235,-93.8611C396.658,-92.9787 405.239,-92.0797 413.751,-91.188"/>
<polygon fill="midnightblue" stroke="midnightblue" points="414.118,-94.6688 423.699,-90.1458 413.389,-87.7069 414.118,-94.6688"/>
</g>
</g>
</svg>
