<?xml version="1.0" encoding="UTF-8" standalone="no"?>
<!DOCTYPE svg PUBLIC "-//W3C//DTD SVG 1.1//EN"
 "http://www.w3.org/Graphics/SVG/1.1/DTD/svg11.dtd">
<!-- Generated by graphviz version 2.36.0 (20140111.2315)
 -->
<!-- Title: edu.odu.cs.cs330.examples.shapes.Shape Pages: 1 -->
<svg width="704pt" height="160pt"
 viewBox="0.00 0.00 704.00 160.00" xmlns="http://www.w3.org/2000/svg" xmlns:xlink="http://www.w3.org/1999/xlink">
<g id="graph0" class="graph" transform="scale(1 1) rotate(0) translate(4 156)">
<title>edu.odu.cs.cs330.examples.shapes.Shape</title>
<polygon fill="white" stroke="none" points="-4,4 -4,-156 700,-156 700,4 -4,4"/>
<!-- Node1 -->
<g id="node1" class="node"><title>Node1</title>
<polygon fill="#bfbfbf" stroke="black" points="96,-73 96,-103 272,-103 272,-73 96,-73"/>
<text text-anchor="start" x="104" y="-91" font-family="Helvetica,sans-Serif" font-size="10.00">edu.odu.cs.cs330.examples.shapes.</text>
<text text-anchor="middle" x="184" y="-80" font-family="Helvetica,sans-Serif" font-size="10.00">Shape</text>
</g>
<!-- Node3 -->
<g id="node3" class="node"><title>Node3</title>
<g id="a_node3"><a xlink:href="classedu_1_1odu_1_1cs_1_1cs330_1_1examples_1_1shapes_1_1Circle.html" target="_top" xlink:title="edu.odu.cs.cs330.examples.shapes.\lCircle">
<polygon fill="white" stroke="black" points="308,-122 308,-152 484,-152 484,-122 308,-122"/>
<text text-anchor="start" x="316" y="-140" font-family="Helvetica,sans-Serif" font-size="10.00">edu.odu.cs.cs330.examples.shapes.</text>
<text text-anchor="middle" x="396" y="-129" font-family="Helvetica,sans-Serif" font-size="10.00">Circle</text>
</a>
</g>
</g>
<!-- Node1&#45;&gt;Node3 -->
<g id="edge2" class="edge"><title>Node1&#45;&gt;Node3</title>
<path fill="none" stroke="midnightblue" d="M259.275,-105.331C282.591,-110.771 308.122,-116.729 330.688,-121.994"/>
<polygon fill="midnightblue" stroke="midnightblue" points="259.968,-101.899 249.434,-103.035 258.377,-108.715 259.968,-101.899"/>
</g>
<!-- Node4 -->
<g id="node4" class="node"><title>Node4</title>
<g id="a_node4"><a xlink:href="classedu_1_1odu_1_1cs_1_1cs330_1_1examples_1_1shapes_1_1Square.html" target="_top" xlink:title="edu.odu.cs.cs330.examples.shapes.\lSquare">
<polygon fill="white" stroke="black" points="308,-73 308,-103 484,-103 484,-73 308,-73"/>
<text text-anchor="start" x="316" y="-91" font-family="Helvetica,sans-Serif" font-size="10.00">edu.odu.cs.cs330.examples.shapes.</text>
<text text-anchor="middle" x="396" y="-80" font-family="Helvetica,sans-Serif" font-size="10.00">Square</text>
</a>
</g>
</g>
<!-- Node1&#45;&gt;Node4 -->
<g id="edge3" class="edge"><title>Node1&#45;&gt;Node4</title>
<path fill="none" stroke="midnightblue" d="M282.459,-88C290.88,-88 299.366,-88 307.699,-88"/>
<polygon fill="midnightblue" stroke="midnightblue" points="282.235,-84.5001 272.235,-88 282.234,-91.5001 282.235,-84.5001"/>
</g>
<!-- Node5 -->
<g id="node5" class="node"><title>Node5</title>
<g id="a_node5"><a xlink:href="classedu_1_1odu_1_1cs_1_1cs330_1_1examples_1_1shapes_1_1Triangle.html" target="_top" xlink:title="edu.odu.cs.cs330.examples.shapes.\lTriangle">
<polygon fill="white" stroke="black" points="308,-24 308,-54 484,-54 484,-24 308,-24"/>
<text text-anchor="start" x="316" y="-42" font-family="Helvetica,sans-Serif" font-size="10.00">edu.odu.cs.cs330.examples.shapes.</text>
<text text-anchor="middle" x="396" y="-31" font-family="Helvetica,sans-Serif" font-size="10.00">Triangle</text>
</a>
</g>
</g>
<!-- Node1&#45;&gt;Node5 -->
<g id="edge4" class="edge"><title>Node1&#45;&gt;Node5</title>
<path fill="none" stroke="midnightblue" d="M259.275,-70.6691C282.591,-65.2288 308.122,-59.2715 330.688,-54.0062"/>
<polygon fill="midnightblue" stroke="midnightblue" points="258.377,-67.2846 249.434,-72.9654 259.968,-74.1015 258.377,-67.2846"/>
</g>
<!-- Node2 -->
<g id="node2" class="node"><title>Node2</title>
<polygon fill="white" stroke="#bfbfbf" points="0,-78.5 0,-97.5 60,-97.5 60,-78.5 0,-78.5"/>
<text text-anchor="middle" x="30" y="-85.5" font-family="Helvetica,sans-Serif" font-size="10.00">Cloneable</text>
</g>
<!-- Node2&#45;&gt;Node1 -->
<g id="edge1" class="edge"><title>Node2&#45;&gt;Node1</title>
<path fill="none" stroke="midnightblue" d="M70.3408,-88C78.3156,-88 86.9985,-88 95.8888,-88"/>
<polygon fill="midnightblue" stroke="midnightblue" points="70.3072,-84.5001 60.3071,-88 70.3071,-91.5001 70.3072,-84.5001"/>
</g>
<!-- Node6 -->
<g id="node6" class="node"><title>Node6</title>
<g id="a_node6"><a xlink:href="classedu_1_1odu_1_1cs_1_1cs330_1_1examples_1_1shapes_1_1EquilateralTriangle.html" target="_top" xlink:title="edu.odu.cs.cs330.examples.shapes.\lEquilateralTriangle">
<polygon fill="white" stroke="black" points="520,-49 520,-79 696,-79 696,-49 520,-49"/>
<text text-anchor="start" x="528" y="-67" font-family="Helvetica,sans-Serif" font-size="10.00">edu.odu.cs.cs330.examples.shapes.</text>
<text text-anchor="middle" x="608" y="-56" font-family="Helvetica,sans-Serif" font-size="10.00">EquilateralTriangle</text>
</a>
</g>
</g>
<!-- Node5&#45;&gt;Node6 -->
<g id="edge5" class="edge"><title>Node5&#45;&gt;Node6</title>
<path fill="none" stroke="midnightblue" d="M494.182,-50.5693C502.694,-51.5826 511.275,-52.6041 519.699,-53.607"/>
<polygon fill="midnightblue" stroke="midnightblue" points="494.578,-47.0918 484.235,-49.3851 493.751,-54.0427 494.578,-47.0918"/>
</g>
<!-- Node7 -->
<g id="node7" class="node"><title>Node7</title>
<g id="a_node7"><a xlink:href="classedu_1_1odu_1_1cs_1_1cs330_1_1examples_1_1shapes_1_1RightTriangle.html" target="_top" xlink:title="edu.odu.cs.cs330.examples.shapes.\lRightTriangle">
<polygon fill="white" stroke="black" points="520,-0 520,-30 696,-30 696,-0 520,-0"/>
<text text-anchor="start" x="528" y="-18" font-family="Helvetica,sans-Serif" font-size="10.00">edu.odu.cs.cs330.examples.shapes.</text>
<text text-anchor="middle" x="608" y="-7" font-family="Helvetica,sans-Serif" font-size="10.00">RightTriangle</text>
</a>
</g>
</g>
<!-- Node5&#45;&gt;Node7 -->
<g id="edge6" class="edge"><title>Node5&#45;&gt;Node7</title>
<path fill="none" stroke="midnightblue" d="M494.182,-27.8935C502.694,-26.9207 511.275,-25.94 519.699,-24.9773"/>
<polygon fill="midnightblue" stroke="midnightblue" points="493.772,-24.4174 484.235,-29.0303 494.567,-31.3722 493.772,-24.4174"/>
</g>
</g>
</svg>
