<?xml version="1.0" encoding="UTF-8" standalone="no"?>
<!DOCTYPE svg PUBLIC "-//W3C//DTD SVG 1.1//EN"
 "http://www.w3.org/Graphics/SVG/1.1/DTD/svg11.dtd">
<!-- Generated by graphviz version 2.36.0 (20140111.2315)
 -->
<!-- Title: edu.odu.cs.cs330.examples.shapes.EquilateralTriangle.height Pages: 1 -->
<svg width="396pt" height="38pt"
 viewBox="0.00 0.00 396.00 38.00" xmlns="http://www.w3.org/2000/svg" xmlns:xlink="http://www.w3.org/1999/xlink">
<g id="graph0" class="graph" transform="scale(1 1) rotate(0) translate(4 34)">
<title>edu.odu.cs.cs330.examples.shapes.EquilateralTriangle.height</title>
<polygon fill="white" stroke="none" points="-4,4 -4,-34 392,-34 392,4 -4,4"/>
<!-- Node1 -->
<g id="node1" class="node"><title>Node1</title>
<polygon fill="#bfbfbf" stroke="black" points="0,-0 0,-30 176,-30 176,-0 0,-0"/>
<text text-anchor="start" x="8" y="-18" font-family="Helvetica,sans-Serif" font-size="10.00">edu.odu.cs.cs330.examples.shapes.</text>
<text text-anchor="middle" x="88" y="-7" font-family="Helvetica,sans-Serif" font-size="10.00">EquilateralTriangle.height</text>
</g>
<!-- Node2 -->
<g id="node2" class="node"><title>Node2</title>
<g id="a_node2"><a xlink:href="classedu_1_1odu_1_1cs_1_1cs330_1_1examples_1_1shapes_1_1EquilateralTriangle.html#ae5736979435608994fd6a5268c775d70" target="_top" xlink:title="edu.odu.cs.cs330.examples.shapes.\lEquilateralTriangle.side">
<polygon fill="white" stroke="black" points="212,-0 212,-30 388,-30 388,-0 212,-0"/>
<text text-anchor="start" x="220" y="-18" font-family="Helvetica,sans-Serif" font-size="10.00">edu.odu.cs.cs330.examples.shapes.</text>
<text text-anchor="middle" x="300" y="-7" font-family="Helvetica,sans-Serif" font-size="10.00">EquilateralTriangle.side</text>
</a>
</g>
</g>
<!-- Node1&#45;&gt;Node2 -->
<g id="edge1" class="edge"><title>Node1&#45;&gt;Node2</title>
<path fill="none" stroke="midnightblue" d="M176.235,-15C184.567,-15 193.052,-15 201.474,-15"/>
<polygon fill="midnightblue" stroke="midnightblue" points="201.699,-18.5001 211.699,-15 201.699,-11.5001 201.699,-18.5001"/>
</g>
</g>
</svg>
