<?xml version="1.0" encoding="UTF-8" standalone="no"?>
<!DOCTYPE svg PUBLIC "-//W3C//DTD SVG 1.1//EN"
 "http://www.w3.org/Graphics/SVG/1.1/DTD/svg11.dtd">
<!-- Generated by graphviz version 2.36.0 (20140111.2315)
 -->
<!-- Title: edu.odu.cs.cs330.examples.shapes.Triangle Pages: 1 -->
<svg width="241pt" height="164pt"
 viewBox="0.00 0.00 241.00 164.00" xmlns="http://www.w3.org/2000/svg" xmlns:xlink="http://www.w3.org/1999/xlink">
<g id="graph0" class="graph" transform="scale(1 1) rotate(0) translate(4 160)">
<title>edu.odu.cs.cs330.examples.shapes.Triangle</title>
<polygon fill="white" stroke="none" points="-4,4 -4,-160 237,-160 237,4 -4,4"/>
<!-- Node1 -->
<g id="node1" class="node"><title>Node1</title>
<polygon fill="#bfbfbf" stroke="black" points="-1,-1 -1,-31 175,-31 175,-1 -1,-1"/>
<text text-anchor="start" x="7" y="-19" font-family="Helvetica,sans-Serif" font-size="10.00">edu.odu.cs.cs330.examples.shapes.</text>
<text text-anchor="middle" x="87" y="-8" font-family="Helvetica,sans-Serif" font-size="10.00">Triangle</text>
</g>
<!-- Node2 -->
<g id="node2" class="node"><title>Node2</title>
<g id="a_node2"><a xlink:href="classedu_1_1odu_1_1cs_1_1cs330_1_1examples_1_1shapes_1_1Shape.html" target="_top" xlink:title="edu.odu.cs.cs330.examples.shapes.\lShape">
<polygon fill="white" stroke="black" points="57,-69 57,-99 233,-99 233,-69 57,-69"/>
<text text-anchor="start" x="65" y="-87" font-family="Helvetica,sans-Serif" font-size="10.00">edu.odu.cs.cs330.examples.shapes.</text>
<text text-anchor="middle" x="145" y="-76" font-family="Helvetica,sans-Serif" font-size="10.00">Shape</text>
</a>
</g>
</g>
<!-- Node2&#45;&gt;Node1 -->
<g id="edge1" class="edge"><title>Node2&#45;&gt;Node1</title>
<path fill="none" stroke="midnightblue" d="M125.58,-60.9013C116.998,-51.1362 107.156,-39.9363 99.5606,-31.2931"/>
<polygon fill="midnightblue" stroke="midnightblue" points="123.185,-63.4777 132.415,-68.679 128.443,-58.8569 123.185,-63.4777"/>
</g>
<!-- Node3 -->
<g id="node3" class="node"><title>Node3</title>
<polygon fill="white" stroke="#bfbfbf" points="57,-136.5 57,-155.5 117,-155.5 117,-136.5 57,-136.5"/>
<text text-anchor="middle" x="87" y="-143.5" font-family="Helvetica,sans-Serif" font-size="10.00">Cloneable</text>
</g>
<!-- Node3&#45;&gt;Node1 -->
<g id="edge3" class="edge"><title>Node3&#45;&gt;Node1</title>
<path fill="none" stroke="midnightblue" d="M68.4238,-129.324C60.5196,-121.44 52.1734,-111.188 48,-100 43.0292,-86.6747 43.4395,-81.4712 48,-68 52.7894,-53.8526 63.2503,-40.5425 72.1332,-31.0692"/>
<polygon fill="midnightblue" stroke="midnightblue" points="66.2994,-132.128 76.0098,-136.365 71.0616,-126.997 66.2994,-132.128"/>
</g>
<!-- Node3&#45;&gt;Node2 -->
<g id="edge2" class="edge"><title>Node3&#45;&gt;Node2</title>
<path fill="none" stroke="midnightblue" d="M102.508,-128.957C111.486,-119.669 122.684,-108.085 131.331,-99.1408"/>
<polygon fill="midnightblue" stroke="midnightblue" points="99.7438,-126.781 95.31,-136.403 104.777,-131.646 99.7438,-126.781"/>
</g>
</g>
</svg>
