<?xml version="1.0" encoding="UTF-8" standalone="no"?>
<!DOCTYPE svg PUBLIC "-//W3C//DTD SVG 1.1//EN"
 "http://www.w3.org/Graphics/SVG/1.1/DTD/svg11.dtd">
<!-- Generated by graphviz version 2.36.0 (20140111.2315)
 -->
<!-- Title: edu.odu.cs.cs330.examples.shapes.EquilateralTriangle.toString Pages: 1 -->
<svg width="608pt" height="87pt"
 viewBox="0.00 0.00 608.00 87.00" xmlns="http://www.w3.org/2000/svg" xmlns:xlink="http://www.w3.org/1999/xlink">
<g id="graph0" class="graph" transform="scale(1 1) rotate(0) translate(4 83)">
<title>edu.odu.cs.cs330.examples.shapes.EquilateralTriangle.toString</title>
<polygon fill="white" stroke="none" points="-4,4 -4,-83 604,-83 604,4 -4,4"/>
<!-- Node1 -->
<g id="node1" class="node"><title>Node1</title>
<polygon fill="#bfbfbf" stroke="black" points="0,-24 0,-54 176,-54 176,-24 0,-24"/>
<text text-anchor="start" x="8" y="-42" font-family="Helvetica,sans-Serif" font-size="10.00">edu.odu.cs.cs330.examples.shapes.</text>
<text text-anchor="middle" x="88" y="-31" font-family="Helvetica,sans-Serif" font-size="10.00">EquilateralTriangle.toString</text>
</g>
<!-- Node2 -->
<g id="node2" class="node"><title>Node2</title>
<g id="a_node2"><a xlink:href="classedu_1_1odu_1_1cs_1_1cs330_1_1examples_1_1shapes_1_1Shape.html#a5065229883ae8ccad17a90f023fb0739" target="_top" xlink:title="edu.odu.cs.cs330.examples.shapes.\lShape.getFormat">
<polygon fill="white" stroke="black" points="212,-49 212,-79 388,-79 388,-49 212,-49"/>
<text text-anchor="start" x="220" y="-67" font-family="Helvetica,sans-Serif" font-size="10.00">edu.odu.cs.cs330.examples.shapes.</text>
<text text-anchor="middle" x="300" y="-56" font-family="Helvetica,sans-Serif" font-size="10.00">Shape.getFormat</text>
</a>
</g>
</g>
<!-- Node1&#45;&gt;Node2 -->
<g id="edge1" class="edge"><title>Node1&#45;&gt;Node2</title>
<path fill="none" stroke="midnightblue" d="M176.235,-49.3851C184.658,-50.3879 193.239,-51.4094 201.751,-52.4228"/>
<polygon fill="midnightblue" stroke="midnightblue" points="201.355,-55.9003 211.699,-53.607 202.183,-48.9494 201.355,-55.9003"/>
</g>
<!-- Node3 -->
<g id="node3" class="node"><title>Node3</title>
<g id="a_node3"><a xlink:href="classedu_1_1odu_1_1cs_1_1cs330_1_1examples_1_1shapes_1_1EquilateralTriangle.html#a904e8dc6dd48dd575f79ac37792403c8" target="_top" xlink:title="edu.odu.cs.cs330.examples.shapes.\lEquilateralTriangle.height">
<polygon fill="white" stroke="black" points="212,-0 212,-30 388,-30 388,-0 212,-0"/>
<text text-anchor="start" x="220" y="-18" font-family="Helvetica,sans-Serif" font-size="10.00">edu.odu.cs.cs330.examples.shapes.</text>
<text text-anchor="middle" x="300" y="-7" font-family="Helvetica,sans-Serif" font-size="10.00">EquilateralTriangle.height</text>
</a>
</g>
</g>
<!-- Node1&#45;&gt;Node3 -->
<g id="edge2" class="edge"><title>Node1&#45;&gt;Node3</title>
<path fill="none" stroke="midnightblue" d="M176.235,-29.0303C184.658,-28.0676 193.239,-27.087 201.751,-26.1142"/>
<polygon fill="midnightblue" stroke="midnightblue" points="202.161,-29.5902 211.699,-24.9773 201.366,-22.6354 202.161,-29.5902"/>
</g>
<!-- Node4 -->
<g id="node4" class="node"><title>Node4</title>
<g id="a_node4"><a xlink:href="classedu_1_1odu_1_1cs_1_1cs330_1_1examples_1_1shapes_1_1EquilateralTriangle.html#ae5736979435608994fd6a5268c775d70" target="_top" xlink:title="edu.odu.cs.cs330.examples.shapes.\lEquilateralTriangle.side">
<polygon fill="white" stroke="black" points="424,-0 424,-30 600,-30 600,-0 424,-0"/>
<text text-anchor="start" x="432" y="-18" font-family="Helvetica,sans-Serif" font-size="10.00">edu.odu.cs.cs330.examples.shapes.</text>
<text text-anchor="middle" x="512" y="-7" font-family="Helvetica,sans-Serif" font-size="10.00">EquilateralTriangle.side</text>
</a>
</g>
</g>
<!-- Node3&#45;&gt;Node4 -->
<g id="edge3" class="edge"><title>Node3&#45;&gt;Node4</title>
<path fill="none" stroke="midnightblue" d="M388.235,-15C396.567,-15 405.052,-15 413.474,-15"/>
<polygon fill="midnightblue" stroke="midnightblue" points="413.699,-18.5001 423.699,-15 413.699,-11.5001 413.699,-18.5001"/>
</g>
</g>
</svg>
