<?xml version="1.0" encoding="UTF-8" standalone="no"?>
<!DOCTYPE svg PUBLIC "-//W3C//DTD SVG 1.1//EN"
 "http://www.w3.org/Graphics/SVG/1.1/DTD/svg11.dtd">
<!-- Generated by graphviz version 2.36.0 (20140111.2315)
 -->
<!-- Title: edu.odu.cs.cs330.examples.shapes.Triangle Pages: 1 -->
<svg width="704pt" height="87pt"
 viewBox="0.00 0.00 704.00 87.00" xmlns="http://www.w3.org/2000/svg" xmlns:xlink="http://www.w3.org/1999/xlink">
<g id="graph0" class="graph" transform="scale(1 1) rotate(0) translate(4 83)">
<title>edu.odu.cs.cs330.examples.shapes.Triangle</title>
<polygon fill="white" stroke="none" points="-4,4 -4,-83 700,-83 700,4 -4,4"/>
<!-- Node1 -->
<g id="node1" class="node"><title>Node1</title>
<polygon fill="#bfbfbf" stroke="black" points="308,-24 308,-54 484,-54 484,-24 308,-24"/>
<text text-anchor="start" x="316" y="-42" font-family="Helvetica,sans-Serif" font-size="10.00">edu.odu.cs.cs330.examples.shapes.</text>
<text text-anchor="middle" x="396" y="-31" font-family="Helvetica,sans-Serif" font-size="10.00">Triangle</text>
</g>
<!-- Node4 -->
<g id="node4" class="node"><title>Node4</title>
<g id="a_node4"><a xlink:href="classedu_1_1odu_1_1cs_1_1cs330_1_1examples_1_1shapes_1_1EquilateralTriangle.html" target="_top" xlink:title="edu.odu.cs.cs330.examples.shapes.\lEquilateralTriangle">
<polygon fill="white" stroke="black" points="520,-49 520,-79 696,-79 696,-49 520,-49"/>
<text text-anchor="start" x="528" y="-67" font-family="Helvetica,sans-Serif" font-size="10.00">edu.odu.cs.cs330.examples.shapes.</text>
<text text-anchor="middle" x="608" y="-56" font-family="Helvetica,sans-Serif" font-size="10.00">EquilateralTriangle</text>
</a>
</g>
</g>
<!-- Node1&#45;&gt;Node4 -->
<g id="edge4" class="edge"><title>Node1&#45;&gt;Node4</title>
<path fill="none" stroke="midnightblue" d="M494.182,-50.5693C502.694,-51.5826 511.275,-52.6041 519.699,-53.607"/>
<polygon fill="midnightblue" stroke="midnightblue" points="494.578,-47.0918 484.235,-49.3851 493.751,-54.0427 494.578,-47.0918"/>
</g>
<!-- Node5 -->
<g id="node5" class="node"><title>Node5</title>
<g id="a_node5"><a xlink:href="classedu_1_1odu_1_1cs_1_1cs330_1_1examples_1_1shapes_1_1RightTriangle.html" target="_top" xlink:title="edu.odu.cs.cs330.examples.shapes.\lRightTriangle">
<polygon fill="white" stroke="black" points="520,-0 520,-30 696,-30 696,-0 520,-0"/>
<text text-anchor="start" x="528" y="-18" font-family="Helvetica,sans-Serif" font-size="10.00">edu.odu.cs.cs330.examples.shapes.</text>
<text text-anchor="middle" x="608" y="-7" font-family="Helvetica,sans-Serif" font-size="10.00">RightTriangle</text>
</a>
</g>
</g>
<!-- Node1&#45;&gt;Node5 -->
<g id="edge5" class="edge"><title>Node1&#45;&gt;Node5</title>
<path fill="none" stroke="midnightblue" d="M494.182,-27.8935C502.694,-26.9207 511.275,-25.94 519.699,-24.9773"/>
<polygon fill="midnightblue" stroke="midnightblue" points="493.772,-24.4174 484.235,-29.0303 494.567,-31.3722 493.772,-24.4174"/>
</g>
<!-- Node2 -->
<g id="node2" class="node"><title>Node2</title>
<g id="a_node2"><a xlink:href="classedu_1_1odu_1_1cs_1_1cs330_1_1examples_1_1shapes_1_1Shape.html" target="_top" xlink:title="edu.odu.cs.cs330.examples.shapes.\lShape">
<polygon fill="white" stroke="black" points="96,-2 96,-32 272,-32 272,-2 96,-2"/>
<text text-anchor="start" x="104" y="-20" font-family="Helvetica,sans-Serif" font-size="10.00">edu.odu.cs.cs330.examples.shapes.</text>
<text text-anchor="middle" x="184" y="-9" font-family="Helvetica,sans-Serif" font-size="10.00">Shape</text>
</a>
</g>
</g>
<!-- Node2&#45;&gt;Node1 -->
<g id="edge1" class="edge"><title>Node2&#45;&gt;Node1</title>
<path fill="none" stroke="midnightblue" d="M282.182,-27.1809C290.694,-28.0727 299.275,-28.9716 307.699,-29.8542"/>
<polygon fill="midnightblue" stroke="midnightblue" points="282.545,-23.6999 272.235,-26.1389 281.815,-30.6618 282.545,-23.6999"/>
</g>
<!-- Node3 -->
<g id="node3" class="node"><title>Node3</title>
<polygon fill="white" stroke="#bfbfbf" points="0,-29.5 0,-48.5 60,-48.5 60,-29.5 0,-29.5"/>
<text text-anchor="middle" x="30" y="-36.5" font-family="Helvetica,sans-Serif" font-size="10.00">Cloneable</text>
</g>
<!-- Node3&#45;&gt;Node1 -->
<g id="edge3" class="edge"><title>Node3&#45;&gt;Node1</title>
<path fill="none" stroke="midnightblue" d="M70.2012,-40.4011C78.7061,-40.6506 87.6534,-40.8716 96,-41 167.369,-42.0977 248.33,-41.4393 307.989,-40.5945"/>
<polygon fill="midnightblue" stroke="midnightblue" points="70.2209,-36.9001 60.1168,-40.087 70.0029,-43.8967 70.2209,-36.9001"/>
</g>
<!-- Node3&#45;&gt;Node2 -->
<g id="edge2" class="edge"><title>Node3&#45;&gt;Node2</title>
<path fill="none" stroke="midnightblue" d="M70.3408,-33.3059C78.3156,-32.1517 86.9985,-30.8949 95.8888,-29.6082"/>
<polygon fill="midnightblue" stroke="midnightblue" points="69.7026,-29.8617 60.3071,-34.7582 70.7054,-36.7896 69.7026,-29.8617"/>
</g>
</g>
</svg>
