<?xml version="1.0" encoding="UTF-8" standalone="no"?>
<!DOCTYPE svg PUBLIC "-//W3C//DTD SVG 1.1//EN"
 "http://www.w3.org/Graphics/SVG/1.1/DTD/svg11.dtd">
<!-- Generated by graphviz version 2.36.0 (20140111.2315)
 -->
<!-- Title: Graphical Class Hierarchy Pages: 1 -->
<svg width="704pt" height="203pt"
 viewBox="0.00 0.00 704.00 202.73" xmlns="http://www.w3.org/2000/svg" xmlns:xlink="http://www.w3.org/1999/xlink">
<g id="graph0" class="graph" transform="scale(1 1) rotate(0) translate(4 198.731)">
<title>Graphical Class Hierarchy</title>
<polygon fill="white" stroke="none" points="-4,4 -4,-198.731 700,-198.731 700,4 -4,4"/>
<!-- Node1 -->
<g id="node1" class="node"><title>Node1</title>
<polygon fill="white" stroke="#bfbfbf" points="0,-75.8724 0,-94.8724 60,-94.8724 60,-75.8724 0,-75.8724"/>
<text text-anchor="middle" x="30" y="-82.8724" font-family="Helvetica,sans-Serif" font-size="10.00">Cloneable</text>
</g>
<!-- Node2 -->
<g id="node2" class="node"><title>Node2</title>
<g id="a_node2"><a xlink:href="classedu_1_1odu_1_1cs_1_1cs330_1_1examples_1_1shapes_1_1Circle.html" target="_top" xlink:title="edu.odu.cs.cs330.examples.shapes.\lCircle">
<polygon fill="white" stroke="black" points="308,-128.372 308,-158.372 484,-158.372 484,-128.372 308,-128.372"/>
<text text-anchor="start" x="316" y="-146.372" font-family="Helvetica,sans-Serif" font-size="10.00">edu.odu.cs.cs330.examples.shapes.</text>
<text text-anchor="middle" x="396" y="-135.372" font-family="Helvetica,sans-Serif" font-size="10.00">Circle</text>
</a>
</g>
</g>
<!-- Node1&#45;&gt;Node2 -->
<g id="edge1" class="edge"><title>Node1&#45;&gt;Node2</title>
<path fill="none" stroke="midnightblue" d="M48.1539,-101.737C60.43,-112.316 77.9226,-125.221 96,-131.372 164.486,-154.677 246.934,-156.179 307.891,-152.702"/>
<polygon fill="midnightblue" stroke="midnightblue" points="50.3215,-98.9788 40.5453,-94.8951 45.6411,-104.184 50.3215,-98.9788"/>
</g>
<!-- Node3 -->
<g id="node3" class="node"><title>Node3</title>
<g id="a_node3"><a xlink:href="classedu_1_1odu_1_1cs_1_1cs330_1_1examples_1_1shapes_1_1EquilateralTriangle.html" target="_top" xlink:title="edu.odu.cs.cs330.examples.shapes.\lEquilateralTriangle">
<polygon fill="white" stroke="black" points="520,-115.372 520,-145.372 696,-145.372 696,-115.372 520,-115.372"/>
<text text-anchor="start" x="528" y="-133.372" font-family="Helvetica,sans-Serif" font-size="10.00">edu.odu.cs.cs330.examples.shapes.</text>
<text text-anchor="middle" x="608" y="-122.372" font-family="Helvetica,sans-Serif" font-size="10.00">EquilateralTriangle</text>
</a>
</g>
</g>
<!-- Node1&#45;&gt;Node3 -->
<g id="edge2" class="edge"><title>Node1&#45;&gt;Node3</title>
<path fill="none" stroke="midnightblue" d="M41.5773,-103.742C52.6734,-121.04 71.8519,-145.951 96,-157.372 255.012,-232.581 473.736,-175.3 564.682,-145.484"/>
<polygon fill="midnightblue" stroke="midnightblue" points="44.4656,-101.756 36.2641,-95.0486 38.4929,-105.406 44.4656,-101.756"/>
</g>
<!-- Node4 -->
<g id="node4" class="node"><title>Node4</title>
<g id="a_node4"><a xlink:href="classedu_1_1odu_1_1cs_1_1cs330_1_1examples_1_1shapes_1_1RightTriangle.html" target="_top" xlink:title="edu.odu.cs.cs330.examples.shapes.\lRightTriangle">
<polygon fill="white" stroke="black" points="520,-38.3724 520,-68.3724 696,-68.3724 696,-38.3724 520,-38.3724"/>
<text text-anchor="start" x="528" y="-56.3724" font-family="Helvetica,sans-Serif" font-size="10.00">edu.odu.cs.cs330.examples.shapes.</text>
<text text-anchor="middle" x="608" y="-45.3724" font-family="Helvetica,sans-Serif" font-size="10.00">RightTriangle</text>
</a>
</g>
</g>
<!-- Node1&#45;&gt;Node4 -->
<g id="edge3" class="edge"><title>Node1&#45;&gt;Node4</title>
<path fill="none" stroke="midnightblue" d="M55.5711,-70.7456C67.4323,-64.2525 82.0821,-57.0399 96,-52.3724 260.278,2.71957 312.768,12.1241 484,-14.3724 513.665,-18.9629 545.975,-29.4332 570.033,-38.3701"/>
<polygon fill="midnightblue" stroke="midnightblue" points="53.714,-67.7747 46.7238,-75.7364 57.1532,-73.8716 53.714,-67.7747"/>
</g>
<!-- Node5 -->
<g id="node5" class="node"><title>Node5</title>
<g id="a_node5"><a xlink:href="classedu_1_1odu_1_1cs_1_1cs330_1_1examples_1_1shapes_1_1Shape.html" target="_top" xlink:title="edu.odu.cs.cs330.examples.shapes.\lShape">
<polygon fill="white" stroke="black" points="96,-92.3724 96,-122.372 272,-122.372 272,-92.3724 96,-92.3724"/>
<text text-anchor="start" x="104" y="-110.372" font-family="Helvetica,sans-Serif" font-size="10.00">edu.odu.cs.cs330.examples.shapes.</text>
<text text-anchor="middle" x="184" y="-99.3724" font-family="Helvetica,sans-Serif" font-size="10.00">Shape</text>
</a>
</g>
</g>
<!-- Node1&#45;&gt;Node5 -->
<g id="edge4" class="edge"><title>Node1&#45;&gt;Node5</title>
<path fill="none" stroke="midnightblue" d="M70.3408,-91.0665C78.3156,-92.2207 86.9985,-93.4775 95.8888,-94.7642"/>
<polygon fill="midnightblue" stroke="midnightblue" points="70.7054,-87.5828 60.3071,-89.6142 69.7026,-94.5107 70.7054,-87.5828"/>
</g>
<!-- Node6 -->
<g id="node6" class="node"><title>Node6</title>
<g id="a_node6"><a xlink:href="classedu_1_1odu_1_1cs_1_1cs330_1_1examples_1_1shapes_1_1Square.html" target="_top" xlink:title="edu.odu.cs.cs330.examples.shapes.\lSquare">
<polygon fill="white" stroke="black" points="308,-24.3724 308,-54.3724 484,-54.3724 484,-24.3724 308,-24.3724"/>
<text text-anchor="start" x="316" y="-42.3724" font-family="Helvetica,sans-Serif" font-size="10.00">edu.odu.cs.cs330.examples.shapes.</text>
<text text-anchor="middle" x="396" y="-31.3724" font-family="Helvetica,sans-Serif" font-size="10.00">Square</text>
</a>
</g>
</g>
<!-- Node1&#45;&gt;Node6 -->
<g id="edge10" class="edge"><title>Node1&#45;&gt;Node6</title>
<path fill="none" stroke="midnightblue" d="M70.1095,-80.43C126.497,-73.3041 232.14,-59.9536 307.657,-50.4103"/>
<polygon fill="midnightblue" stroke="midnightblue" points="69.6546,-76.9596 60.1723,-81.6858 70.5323,-83.9043 69.6546,-76.9596"/>
</g>
<!-- Node7 -->
<g id="node7" class="node"><title>Node7</title>
<g id="a_node7"><a xlink:href="classedu_1_1odu_1_1cs_1_1cs330_1_1examples_1_1shapes_1_1Triangle.html" target="_top" xlink:title="edu.odu.cs.cs330.examples.shapes.\lTriangle">
<polygon fill="white" stroke="black" points="308,-77.3724 308,-107.372 484,-107.372 484,-77.3724 308,-77.3724"/>
<text text-anchor="start" x="316" y="-95.3724" font-family="Helvetica,sans-Serif" font-size="10.00">edu.odu.cs.cs330.examples.shapes.</text>
<text text-anchor="middle" x="396" y="-84.3724" font-family="Helvetica,sans-Serif" font-size="10.00">Triangle</text>
</a>
</g>
</g>
<!-- Node1&#45;&gt;Node7 -->
<g id="edge11" class="edge"><title>Node1&#45;&gt;Node7</title>
<path fill="none" stroke="midnightblue" d="M70.1956,-83.2708C78.7008,-82.8966 87.6497,-82.565 96,-82.3724 174.201,-80.5687 193.842,-79.2005 272,-82.3724 283.56,-82.8415 295.716,-83.5577 307.702,-84.3958"/>
<polygon fill="midnightblue" stroke="midnightblue" points="69.937,-79.779 60.1113,-83.742 70.2638,-86.7714 69.937,-79.779"/>
</g>
<!-- Node5&#45;&gt;Node2 -->
<g id="edge5" class="edge"><title>Node5&#45;&gt;Node2</title>
<path fill="none" stroke="midnightblue" d="M282.182,-124.032C290.694,-125.491 299.275,-126.962 307.699,-128.407"/>
<polygon fill="midnightblue" stroke="midnightblue" points="282.682,-120.567 272.235,-122.327 281.499,-127.466 282.682,-120.567"/>
</g>
<!-- Node5&#45;&gt;Node6 -->
<g id="edge6" class="edge"><title>Node5&#45;&gt;Node6</title>
<path fill="none" stroke="midnightblue" d="M240.873,-89.1625C261.912,-82.3162 286.052,-74.4731 308,-67.3724 320.983,-63.1721 335.062,-58.6339 348.034,-54.459"/>
<polygon fill="midnightblue" stroke="midnightblue" points="239.557,-85.91 231.132,-92.3334 241.724,-92.5662 239.557,-85.91"/>
</g>
<!-- Node5&#45;&gt;Node7 -->
<g id="edge7" class="edge"><title>Node5&#45;&gt;Node7</title>
<path fill="none" stroke="midnightblue" d="M282.459,-100.411C290.88,-99.8095 299.366,-99.2034 307.699,-98.6082"/>
<polygon fill="midnightblue" stroke="midnightblue" points="281.96,-96.9377 272.235,-101.141 282.459,-103.92 281.96,-96.9377"/>
</g>
<!-- Node7&#45;&gt;Node3 -->
<g id="edge8" class="edge"><title>Node7&#45;&gt;Node3</title>
<path fill="none" stroke="midnightblue" d="M489.892,-109.181C501.222,-111.232 512.743,-113.316 523.918,-115.338"/>
<polygon fill="midnightblue" stroke="midnightblue" points="490.461,-105.728 479.998,-107.391 489.215,-112.616 490.461,-105.728"/>
</g>
<!-- Node7&#45;&gt;Node4 -->
<g id="edge9" class="edge"><title>Node7&#45;&gt;Node4</title>
<path fill="none" stroke="midnightblue" d="M487.997,-75.473C500.69,-73.1157 513.661,-70.7067 526.151,-68.3873"/>
<polygon fill="midnightblue" stroke="midnightblue" points="487.084,-72.0826 477.891,-77.3498 488.362,-78.9649 487.084,-72.0826"/>
</g>
</g>
</svg>
