<?xml version="1.0" encoding="UTF-8" standalone="no"?>
<!DOCTYPE svg PUBLIC "-//W3C//DTD SVG 1.1//EN"
 "http://www.w3.org/Graphics/SVG/1.1/DTD/svg11.dtd">
<!-- Generated by graphviz version 2.36.0 (20140111.2315)
 -->
<!-- Title: shapes.Triangle Pages: 1 -->
<svg width="265pt" height="196pt"
 viewBox="0.00 0.00 265.00 196.00" xmlns="http://www.w3.org/2000/svg" xmlns:xlink="http://www.w3.org/1999/xlink">
<g id="graph0" class="graph" transform="scale(1 1) rotate(0) translate(4 192)">
<title>shapes.Triangle</title>
<polygon fill="white" stroke="none" points="-4,4 -4,-192 261,-192 261,4 -4,4"/>
<!-- Node1 -->
<g id="node1" class="node"><title>Node1</title>
<polygon fill="#bfbfbf" stroke="black" points="91,-56.5 91,-75.5 177,-75.5 177,-56.5 91,-56.5"/>
<text text-anchor="middle" x="134" y="-63.5" font-family="Helvetica,sans-Serif" font-size="10.00">shapes.Triangle</text>
</g>
<!-- Node4 -->
<g id="node4" class="node"><title>Node4</title>
<g id="a_node4"><a xlink:href="classshapes_1_1EquilateralTriangle.html" target="_top" xlink:title="shapes.EquilateralTriangle">
<polygon fill="white" stroke="black" points="-0.5,-0.5 -0.5,-19.5 130.5,-19.5 130.5,-0.5 -0.5,-0.5"/>
<text text-anchor="middle" x="65" y="-7.5" font-family="Helvetica,sans-Serif" font-size="10.00">shapes.EquilateralTriangle</text>
</a>
</g>
</g>
<!-- Node1&#45;&gt;Node4 -->
<g id="edge3" class="edge"><title>Node1&#45;&gt;Node4</title>
<path fill="none" stroke="midnightblue" d="M114.962,-50.1008C102.544,-40.3824 86.7566,-28.0269 76.2878,-19.8339"/>
<polygon fill="midnightblue" stroke="midnightblue" points="112.882,-52.9171 122.914,-56.324 117.196,-47.4046 112.882,-52.9171"/>
</g>
<!-- Node5 -->
<g id="node5" class="node"><title>Node5</title>
<g id="a_node5"><a xlink:href="classshapes_1_1RightTriangle.html" target="_top" xlink:title="shapes.RightTriangle">
<polygon fill="white" stroke="black" points="148.5,-0.5 148.5,-19.5 257.5,-19.5 257.5,-0.5 148.5,-0.5"/>
<text text-anchor="middle" x="203" y="-7.5" font-family="Helvetica,sans-Serif" font-size="10.00">shapes.RightTriangle</text>
</a>
</g>
</g>
<!-- Node1&#45;&gt;Node5 -->
<g id="edge4" class="edge"><title>Node1&#45;&gt;Node5</title>
<path fill="none" stroke="midnightblue" d="M153.038,-50.1008C165.456,-40.3824 181.243,-28.0269 191.712,-19.8339"/>
<polygon fill="midnightblue" stroke="midnightblue" points="150.804,-47.4046 145.086,-56.324 155.118,-52.9171 150.804,-47.4046"/>
</g>
<!-- Node2 -->
<g id="node2" class="node"><title>Node2</title>
<g id="a_node2"><a xlink:href="classshapes_1_1Shape.html" target="_top" xlink:title="shapes.Shape">
<polygon fill="white" stroke="black" points="94.5,-112.5 94.5,-131.5 173.5,-131.5 173.5,-112.5 94.5,-112.5"/>
<text text-anchor="middle" x="134" y="-119.5" font-family="Helvetica,sans-Serif" font-size="10.00">shapes.Shape</text>
</a>
</g>
</g>
<!-- Node2&#45;&gt;Node1 -->
<g id="edge1" class="edge"><title>Node2&#45;&gt;Node1</title>
<path fill="none" stroke="midnightblue" d="M134,-101.805C134,-92.9102 134,-82.7798 134,-75.7511"/>
<polygon fill="midnightblue" stroke="midnightblue" points="130.5,-102.083 134,-112.083 137.5,-102.083 130.5,-102.083"/>
</g>
<!-- Node3 -->
<g id="node3" class="node"><title>Node3</title>
<polygon fill="white" stroke="#bfbfbf" points="104,-168.5 104,-187.5 164,-187.5 164,-168.5 104,-168.5"/>
<text text-anchor="middle" x="134" y="-175.5" font-family="Helvetica,sans-Serif" font-size="10.00">Cloneable</text>
</g>
<!-- Node3&#45;&gt;Node2 -->
<g id="edge2" class="edge"><title>Node3&#45;&gt;Node2</title>
<path fill="none" stroke="midnightblue" d="M134,-157.805C134,-148.91 134,-138.78 134,-131.751"/>
<polygon fill="midnightblue" stroke="midnightblue" points="130.5,-158.083 134,-168.083 137.5,-158.083 130.5,-158.083"/>
</g>
</g>
</svg>
