<?xml version="1.0" encoding="UTF-8" standalone="no"?>
<!DOCTYPE svg PUBLIC "-//W3C//DTD SVG 1.1//EN"
 "http://www.w3.org/Graphics/SVG/1.1/DTD/svg11.dtd">
<!-- Generated by graphviz version 2.36.0 (20140111.2315)
 -->
<!-- Title: utilities.Utilities.seperatedHeading Pages: 1 -->
<svg width="320pt" height="77pt"
 viewBox="0.00 0.00 320.00 77.00" xmlns="http://www.w3.org/2000/svg" xmlns:xlink="http://www.w3.org/1999/xlink">
<g id="graph0" class="graph" transform="scale(1 1) rotate(0) translate(4 73)">
<title>utilities.Utilities.seperatedHeading</title>
<polygon fill="white" stroke="none" points="-4,4 -4,-73 316,-73 316,4 -4,4"/>
<!-- Node1 -->
<g id="node1" class="node"><title>Node1</title>
<polygon fill="#bfbfbf" stroke="black" points="0.5,-17 0.5,-47 129.5,-47 129.5,-17 0.5,-17"/>
<text text-anchor="start" x="8.5" y="-35" font-family="Helvetica,sans-Serif" font-size="10.00">utilities.Utilities.seperated</text>
<text text-anchor="middle" x="65" y="-24" font-family="Helvetica,sans-Serif" font-size="10.00">Heading</text>
</g>
<!-- Node2 -->
<g id="node2" class="node"><title>Node2</title>
<g id="a_node2"><a xlink:href="classutilities_1_1Utilities.html#a480f7eb4707ff60183ee95387126432c" target="_top" xlink:title="utilities.Utilities.centered\lTitle">
<polygon fill="white" stroke="black" points="177,-39 177,-69 301,-69 301,-39 177,-39"/>
<text text-anchor="start" x="185" y="-57" font-family="Helvetica,sans-Serif" font-size="10.00">utilities.Utilities.centered</text>
<text text-anchor="middle" x="239" y="-46" font-family="Helvetica,sans-Serif" font-size="10.00">Title</text>
</a>
</g>
</g>
<!-- Node1&#45;&gt;Node2 -->
<g id="edge1" class="edge"><title>Node1&#45;&gt;Node2</title>
<path fill="none" stroke="midnightblue" d="M129.558,-40.1295C141.669,-41.6786 154.419,-43.3095 166.752,-44.8869"/>
<polygon fill="midnightblue" stroke="midnightblue" points="166.627,-48.3993 176.99,-46.1964 167.515,-41.4559 166.627,-48.3993"/>
</g>
<!-- Node3 -->
<g id="node3" class="node"><title>Node3</title>
<g id="a_node3"><a xlink:href="classutilities_1_1Utilities.html#aad0367a70cee20da9e432d5f1e995f55" target="_top" xlink:title="utilities.Utilities.horizontalLine">
<polygon fill="white" stroke="black" points="166,-0.5 166,-19.5 312,-19.5 312,-0.5 166,-0.5"/>
<text text-anchor="middle" x="239" y="-7.5" font-family="Helvetica,sans-Serif" font-size="10.00">utilities.Utilities.horizontalLine</text>
</a>
</g>
</g>
<!-- Node1&#45;&gt;Node3 -->
<g id="edge2" class="edge"><title>Node1&#45;&gt;Node3</title>
<path fill="none" stroke="midnightblue" d="M129.558,-23.8705C138.018,-22.7884 146.79,-21.6664 155.513,-20.5507"/>
<polygon fill="midnightblue" stroke="midnightblue" points="156.235,-23.987 165.71,-19.2464 155.346,-17.0435 156.235,-23.987"/>
</g>
</g>
</svg>
