<?xml version="1.0" encoding="UTF-8" standalone="no"?>
<!DOCTYPE svg PUBLIC "-//W3C//DTD SVG 1.1//EN"
 "http://www.w3.org/Graphics/SVG/1.1/DTD/svg11.dtd">
<!-- Generated by graphviz version 2.36.0 (20140111.2315)
 -->
<!-- Title: shapes.RightTriangle.clone Pages: 1 -->
<svg width="672pt" height="38pt"
 viewBox="0.00 0.00 672.00 38.00" xmlns="http://www.w3.org/2000/svg" xmlns:xlink="http://www.w3.org/1999/xlink">
<g id="graph0" class="graph" transform="scale(1 1) rotate(0) translate(4 34)">
<title>shapes.RightTriangle.clone</title>
<polygon fill="white" stroke="none" points="-4,4 -4,-34 668,-34 668,4 -4,4"/>
<!-- Node1 -->
<g id="node1" class="node"><title>Node1</title>
<polygon fill="#bfbfbf" stroke="black" points="0.5,-5.5 0.5,-24.5 135.5,-24.5 135.5,-5.5 0.5,-5.5"/>
<text text-anchor="middle" x="68" y="-12.5" font-family="Helvetica,sans-Serif" font-size="10.00">shapes.RightTriangle.clone</text>
</g>
<!-- Node2 -->
<g id="node2" class="node"><title>Node2</title>
<g id="a_node2"><a xlink:href="classshapes_1_1RightTriangle.html#accc7988cf12155d67406533e3aeb96ad" target="_top" xlink:title="shapes.RightTriangle.Right\lTriangle">
<polygon fill="white" stroke="black" points="172.5,-0 172.5,-30 307.5,-30 307.5,-0 172.5,-0"/>
<text text-anchor="start" x="180.5" y="-18" font-family="Helvetica,sans-Serif" font-size="10.00">shapes.RightTriangle.Right</text>
<text text-anchor="middle" x="240" y="-7" font-family="Helvetica,sans-Serif" font-size="10.00">Triangle</text>
</a>
</g>
</g>
<!-- Node1&#45;&gt;Node2 -->
<g id="edge1" class="edge"><title>Node1&#45;&gt;Node2</title>
<path fill="none" stroke="midnightblue" d="M135.701,-15C144.487,-15 153.547,-15 162.48,-15"/>
<polygon fill="midnightblue" stroke="midnightblue" points="162.492,-18.5001 172.492,-15 162.492,-11.5001 162.492,-18.5001"/>
</g>
<!-- Node3 -->
<g id="node3" class="node"><title>Node3</title>
<g id="a_node3"><a xlink:href="classshapes_1_1RightTriangle.html#a8b5baa9faf8cd5374159cf0be5b7ef24" target="_top" xlink:title="shapes.RightTriangle.compute\lHypotenuse">
<polygon fill="white" stroke="black" points="344.5,-0 344.5,-30 493.5,-30 493.5,-0 344.5,-0"/>
<text text-anchor="start" x="352.5" y="-18" font-family="Helvetica,sans-Serif" font-size="10.00">shapes.RightTriangle.compute</text>
<text text-anchor="middle" x="419" y="-7" font-family="Helvetica,sans-Serif" font-size="10.00">Hypotenuse</text>
</a>
</g>
</g>
<!-- Node2&#45;&gt;Node3 -->
<g id="edge2" class="edge"><title>Node2&#45;&gt;Node3</title>
<path fill="none" stroke="midnightblue" d="M307.664,-15C316.35,-15 325.336,-15 334.257,-15"/>
<polygon fill="midnightblue" stroke="midnightblue" points="334.283,-18.5001 344.283,-15 334.283,-11.5001 334.283,-18.5001"/>
</g>
<!-- Node4 -->
<g id="node4" class="node"><title>Node4</title>
<g id="a_node4"><a xlink:href="classshapes_1_1RightTriangle.html#ae7d867d384bf04743c5ae65b572ca1c7" target="_top" xlink:title="shapes.RightTriangle.base">
<polygon fill="white" stroke="black" points="530.5,-5.5 530.5,-24.5 663.5,-24.5 663.5,-5.5 530.5,-5.5"/>
<text text-anchor="middle" x="597" y="-12.5" font-family="Helvetica,sans-Serif" font-size="10.00">shapes.RightTriangle.base</text>
</a>
</g>
</g>
<!-- Node3&#45;&gt;Node4 -->
<g id="edge3" class="edge"><title>Node3&#45;&gt;Node4</title>
<path fill="none" stroke="midnightblue" d="M493.62,-15C502.354,-15 511.282,-15 520.047,-15"/>
<polygon fill="midnightblue" stroke="midnightblue" points="520.241,-18.5001 530.241,-15 520.241,-11.5001 520.241,-18.5001"/>
</g>
</g>
</svg>
