<?xml version="1.0" encoding="UTF-8" standalone="no"?>
<!DOCTYPE svg PUBLIC "-//W3C//DTD SVG 1.1//EN"
 "http://www.w3.org/Graphics/SVG/1.1/DTD/svg11.dtd">
<!-- Generated by graphviz version 2.36.0 (20140111.2315)
 -->
<!-- Title: shapes.EquilateralTriangle.toString Pages: 1 -->
<svg width="538pt" height="66pt"
 viewBox="0.00 0.00 538.00 66.00" xmlns="http://www.w3.org/2000/svg" xmlns:xlink="http://www.w3.org/1999/xlink">
<g id="graph0" class="graph" transform="scale(1 1) rotate(0) translate(4 62)">
<title>shapes.EquilateralTriangle.toString</title>
<polygon fill="white" stroke="none" points="-4,4 -4,-62 534,-62 534,4 -4,4"/>
<!-- Node1 -->
<g id="node1" class="node"><title>Node1</title>
<polygon fill="#bfbfbf" stroke="black" points="0.5,-14 0.5,-44 143.5,-44 143.5,-14 0.5,-14"/>
<text text-anchor="start" x="8.5" y="-32" font-family="Helvetica,sans-Serif" font-size="10.00">shapes.EquilateralTriangle.to</text>
<text text-anchor="middle" x="72" y="-21" font-family="Helvetica,sans-Serif" font-size="10.00">String</text>
</g>
<!-- Node2 -->
<g id="node2" class="node"><title>Node2</title>
<g id="a_node2"><a xlink:href="classshapes_1_1Shape.html#a5d3d0dfd465d3fd7030ac1ae63c7aabc" target="_top" xlink:title="shapes.Shape.getFormat">
<polygon fill="white" stroke="black" points="198,-38.5 198,-57.5 324,-57.5 324,-38.5 198,-38.5"/>
<text text-anchor="middle" x="261" y="-45.5" font-family="Helvetica,sans-Serif" font-size="10.00">shapes.Shape.getFormat</text>
</a>
</g>
</g>
<!-- Node1&#45;&gt;Node2 -->
<g id="edge1" class="edge"><title>Node1&#45;&gt;Node2</title>
<path fill="none" stroke="midnightblue" d="M143.697,-36.1831C158.012,-37.6376 173.086,-39.1692 187.464,-40.63"/>
<polygon fill="midnightblue" stroke="midnightblue" points="187.486,-44.1502 197.789,-41.6791 188.194,-37.1861 187.486,-44.1502"/>
</g>
<!-- Node3 -->
<g id="node3" class="node"><title>Node3</title>
<g id="a_node3"><a xlink:href="classshapes_1_1EquilateralTriangle.html#a3092981d95ba3f68631c3fb237151bf6" target="_top" xlink:title="shapes.EquilateralTriangle.height">
<polygon fill="white" stroke="black" points="180.5,-0.5 180.5,-19.5 341.5,-19.5 341.5,-0.5 180.5,-0.5"/>
<text text-anchor="middle" x="261" y="-7.5" font-family="Helvetica,sans-Serif" font-size="10.00">shapes.EquilateralTriangle.height</text>
</a>
</g>
</g>
<!-- Node1&#45;&gt;Node3 -->
<g id="edge2" class="edge"><title>Node1&#45;&gt;Node3</title>
<path fill="none" stroke="midnightblue" d="M143.697,-21.8169C152.414,-20.9312 161.412,-20.0169 170.364,-19.1074"/>
<polygon fill="midnightblue" stroke="midnightblue" points="170.838,-22.5774 180.432,-18.0844 170.13,-15.6133 170.838,-22.5774"/>
</g>
<!-- Node4 -->
<g id="node4" class="node"><title>Node4</title>
<g id="a_node4"><a xlink:href="classshapes_1_1EquilateralTriangle.html#ae68d4fac8ab8e3f2c82fbce578bad8dc" target="_top" xlink:title="shapes.EquilateralTriangle.side">
<polygon fill="white" stroke="black" points="378,-0.5 378,-19.5 530,-19.5 530,-0.5 378,-0.5"/>
<text text-anchor="middle" x="454" y="-7.5" font-family="Helvetica,sans-Serif" font-size="10.00">shapes.EquilateralTriangle.side</text>
</a>
</g>
</g>
<!-- Node3&#45;&gt;Node4 -->
<g id="edge3" class="edge"><title>Node3&#45;&gt;Node4</title>
<path fill="none" stroke="midnightblue" d="M341.618,-10C350.226,-10 359.011,-10 367.683,-10"/>
<polygon fill="midnightblue" stroke="midnightblue" points="367.793,-13.5001 377.793,-10 367.793,-6.5001 367.793,-13.5001"/>
</g>
</g>
</svg>
