<?xml version="1.0" encoding="UTF-8" standalone="no"?>
<!DOCTYPE svg PUBLIC "-//W3C//DTD SVG 1.1//EN"
 "http://www.w3.org/Graphics/SVG/1.1/DTD/svg11.dtd">
<!-- Generated by graphviz version 2.36.0 (20140111.2315)
 -->
<!-- Title: shapes.RightTriangle Pages: 1 -->
<svg width="116pt" height="196pt"
 viewBox="0.00 0.00 116.00 196.00" xmlns="http://www.w3.org/2000/svg" xmlns:xlink="http://www.w3.org/1999/xlink">
<g id="graph0" class="graph" transform="scale(1 1) rotate(0) translate(4 192)">
<title>shapes.RightTriangle</title>
<polygon fill="white" stroke="none" points="-4,4 -4,-192 112,-192 112,4 -4,4"/>
<!-- Node1 -->
<g id="node1" class="node"><title>Node1</title>
<polygon fill="#bfbfbf" stroke="black" points="-0.5,-0.5 -0.5,-19.5 108.5,-19.5 108.5,-0.5 -0.5,-0.5"/>
<text text-anchor="middle" x="54" y="-7.5" font-family="Helvetica,sans-Serif" font-size="10.00">shapes.RightTriangle</text>
</g>
<!-- Node2 -->
<g id="node2" class="node"><title>Node2</title>
<g id="a_node2"><a xlink:href="classshapes_1_1Triangle.html" target="_top" xlink:title="shapes.Triangle">
<polygon fill="white" stroke="black" points="11,-56.5 11,-75.5 97,-75.5 97,-56.5 11,-56.5"/>
<text text-anchor="middle" x="54" y="-63.5" font-family="Helvetica,sans-Serif" font-size="10.00">shapes.Triangle</text>
</a>
</g>
</g>
<!-- Node2&#45;&gt;Node1 -->
<g id="edge1" class="edge"><title>Node2&#45;&gt;Node1</title>
<path fill="none" stroke="midnightblue" d="M54,-45.8045C54,-36.9102 54,-26.7798 54,-19.7511"/>
<polygon fill="midnightblue" stroke="midnightblue" points="50.5001,-46.083 54,-56.083 57.5001,-46.083 50.5001,-46.083"/>
</g>
<!-- Node3 -->
<g id="node3" class="node"><title>Node3</title>
<g id="a_node3"><a xlink:href="classshapes_1_1Shape.html" target="_top" xlink:title="shapes.Shape">
<polygon fill="white" stroke="black" points="14.5,-112.5 14.5,-131.5 93.5,-131.5 93.5,-112.5 14.5,-112.5"/>
<text text-anchor="middle" x="54" y="-119.5" font-family="Helvetica,sans-Serif" font-size="10.00">shapes.Shape</text>
</a>
</g>
</g>
<!-- Node3&#45;&gt;Node2 -->
<g id="edge2" class="edge"><title>Node3&#45;&gt;Node2</title>
<path fill="none" stroke="midnightblue" d="M54,-101.805C54,-92.9102 54,-82.7798 54,-75.7511"/>
<polygon fill="midnightblue" stroke="midnightblue" points="50.5001,-102.083 54,-112.083 57.5001,-102.083 50.5001,-102.083"/>
</g>
<!-- Node4 -->
<g id="node4" class="node"><title>Node4</title>
<polygon fill="white" stroke="#bfbfbf" points="24,-168.5 24,-187.5 84,-187.5 84,-168.5 24,-168.5"/>
<text text-anchor="middle" x="54" y="-175.5" font-family="Helvetica,sans-Serif" font-size="10.00">Cloneable</text>
</g>
<!-- Node4&#45;&gt;Node3 -->
<g id="edge3" class="edge"><title>Node4&#45;&gt;Node3</title>
<path fill="none" stroke="midnightblue" d="M54,-157.805C54,-148.91 54,-138.78 54,-131.751"/>
<polygon fill="midnightblue" stroke="midnightblue" points="50.5001,-158.083 54,-168.083 57.5001,-158.083 50.5001,-158.083"/>
</g>
</g>
</svg>
