<?xml version="1.0" encoding="UTF-8" standalone="no"?>
<!DOCTYPE svg PUBLIC "-//W3C//DTD SVG 1.1//EN"
 "http://www.w3.org/Graphics/SVG/1.1/DTD/svg11.dtd">
<!-- Generated by graphviz version 2.36.0 (20140111.2315)
 -->
<!-- Title: shapes.Triangle.area Pages: 1 -->
<svg width="282pt" height="142pt"
 viewBox="0.00 0.00 282.00 142.00" xmlns="http://www.w3.org/2000/svg" xmlns:xlink="http://www.w3.org/1999/xlink">
<g id="graph0" class="graph" transform="scale(1 1) rotate(0) translate(4 138)">
<title>shapes.Triangle.area</title>
<polygon fill="white" stroke="none" points="-4,4 -4,-138 278,-138 278,4 -4,4"/>
<!-- Node1 -->
<g id="node1" class="node"><title>Node1</title>
<polygon fill="#bfbfbf" stroke="black" points="0.5,-57.5 0.5,-76.5 107.5,-76.5 107.5,-57.5 0.5,-57.5"/>
<text text-anchor="middle" x="54" y="-64.5" font-family="Helvetica,sans-Serif" font-size="10.00">shapes.Triangle.area</text>
</g>
<!-- Node2 -->
<g id="node2" class="node"><title>Node2</title>
<g id="a_node2"><a xlink:href="classshapes_1_1Triangle.html#a3a6ba873e1f16a6fcd040cc9b6aa27fe" target="_top" xlink:title="shapes.Triangle.perimeter">
<polygon fill="white" stroke="black" points="144.5,-114.5 144.5,-133.5 273.5,-133.5 273.5,-114.5 144.5,-114.5"/>
<text text-anchor="middle" x="209" y="-121.5" font-family="Helvetica,sans-Serif" font-size="10.00">shapes.Triangle.perimeter</text>
</a>
</g>
</g>
<!-- Node1&#45;&gt;Node2 -->
<g id="edge1" class="edge"><title>Node1&#45;&gt;Node2</title>
<path fill="none" stroke="midnightblue" d="M75.5905,-76.5911C93.4585,-84.7203 120.135,-96.3949 144,-105 150.3,-107.272 157.017,-109.486 163.641,-111.553"/>
<polygon fill="midnightblue" stroke="midnightblue" points="162.634,-114.905 173.22,-114.465 164.671,-108.207 162.634,-114.905"/>
</g>
<!-- Node3 -->
<g id="node3" class="node"><title>Node3</title>
<g id="a_node3"><a xlink:href="classshapes_1_1Triangle.html#a3d676ad0c7fb6de9f75ce578a50fae92" target="_top" xlink:title="shapes.Triangle.sideA">
<polygon fill="white" stroke="black" points="152.5,-76.5 152.5,-95.5 265.5,-95.5 265.5,-76.5 152.5,-76.5"/>
<text text-anchor="middle" x="209" y="-83.5" font-family="Helvetica,sans-Serif" font-size="10.00">shapes.Triangle.sideA</text>
</a>
</g>
</g>
<!-- Node1&#45;&gt;Node3 -->
<g id="edge2" class="edge"><title>Node1&#45;&gt;Node3</title>
<path fill="none" stroke="midnightblue" d="M107.654,-73.5387C118.819,-74.9252 130.737,-76.4052 142.317,-77.8433"/>
<polygon fill="midnightblue" stroke="midnightblue" points="142.025,-81.3338 152.38,-79.0929 142.887,-74.3871 142.025,-81.3338"/>
</g>
<!-- Node4 -->
<g id="node4" class="node"><title>Node4</title>
<g id="a_node4"><a xlink:href="classshapes_1_1Triangle.html#aac536a572365303cc1f3391ffc115809" target="_top" xlink:title="shapes.Triangle.sideB">
<polygon fill="white" stroke="black" points="152.5,-38.5 152.5,-57.5 265.5,-57.5 265.5,-38.5 152.5,-38.5"/>
<text text-anchor="middle" x="209" y="-45.5" font-family="Helvetica,sans-Serif" font-size="10.00">shapes.Triangle.sideB</text>
</a>
</g>
</g>
<!-- Node1&#45;&gt;Node4 -->
<g id="edge3" class="edge"><title>Node1&#45;&gt;Node4</title>
<path fill="none" stroke="midnightblue" d="M107.654,-60.4613C118.819,-59.0748 130.737,-57.5948 142.317,-56.1567"/>
<polygon fill="midnightblue" stroke="midnightblue" points="142.887,-59.6129 152.38,-54.9071 142.025,-52.6662 142.887,-59.6129"/>
</g>
<!-- Node5 -->
<g id="node5" class="node"><title>Node5</title>
<g id="a_node5"><a xlink:href="classshapes_1_1Triangle.html#a791bfdc2a8321ced5a413e2c9e27ad7c" target="_top" xlink:title="shapes.Triangle.sideC">
<polygon fill="white" stroke="black" points="152,-0.5 152,-19.5 266,-19.5 266,-0.5 152,-0.5"/>
<text text-anchor="middle" x="209" y="-7.5" font-family="Helvetica,sans-Serif" font-size="10.00">shapes.Triangle.sideC</text>
</a>
</g>
</g>
<!-- Node1&#45;&gt;Node5 -->
<g id="edge4" class="edge"><title>Node1&#45;&gt;Node5</title>
<path fill="none" stroke="midnightblue" d="M75.5905,-57.4089C93.4585,-49.2797 120.135,-37.6051 144,-29 150.3,-26.7284 157.017,-24.5143 163.641,-22.4474"/>
<polygon fill="midnightblue" stroke="midnightblue" points="164.671,-25.7925 173.22,-19.5351 162.634,-19.0952 164.671,-25.7925"/>
</g>
</g>
</svg>
