<?xml version="1.0" encoding="UTF-8" standalone="no"?>
<!DOCTYPE svg PUBLIC "-//W3C//DTD SVG 1.1//EN"
 "http://www.w3.org/Graphics/SVG/1.1/DTD/svg11.dtd">
<!-- Generated by graphviz version 2.36.0 (20140111.2315)
 -->
<!-- Title: shapes.Square.toString Pages: 1 -->
<svg width="290pt" height="66pt"
 viewBox="0.00 0.00 290.00 66.00" xmlns="http://www.w3.org/2000/svg" xmlns:xlink="http://www.w3.org/1999/xlink">
<g id="graph0" class="graph" transform="scale(1 1) rotate(0) translate(4 62)">
<title>shapes.Square.toString</title>
<polygon fill="white" stroke="none" points="-4,4 -4,-62 286,-62 286,4 -4,4"/>
<!-- Node1 -->
<g id="node1" class="node"><title>Node1</title>
<polygon fill="#bfbfbf" stroke="black" points="0.5,-19.5 0.5,-38.5 119.5,-38.5 119.5,-19.5 0.5,-19.5"/>
<text text-anchor="middle" x="60" y="-26.5" font-family="Helvetica,sans-Serif" font-size="10.00">shapes.Square.toString</text>
</g>
<!-- Node2 -->
<g id="node2" class="node"><title>Node2</title>
<g id="a_node2"><a xlink:href="classshapes_1_1Shape.html#a5d3d0dfd465d3fd7030ac1ae63c7aabc" target="_top" xlink:title="shapes.Shape.getFormat">
<polygon fill="white" stroke="black" points="156,-38.5 156,-57.5 282,-57.5 282,-38.5 156,-38.5"/>
<text text-anchor="middle" x="219" y="-45.5" font-family="Helvetica,sans-Serif" font-size="10.00">shapes.Shape.getFormat</text>
</a>
</g>
</g>
<!-- Node1&#45;&gt;Node2 -->
<g id="edge1" class="edge"><title>Node1&#45;&gt;Node2</title>
<path fill="none" stroke="midnightblue" d="M119.908,-36.129C128.35,-37.1507 137.116,-38.2115 145.779,-39.2599"/>
<polygon fill="midnightblue" stroke="midnightblue" points="145.528,-42.755 155.876,-40.4819 146.369,-35.8057 145.528,-42.755"/>
</g>
<!-- Node3 -->
<g id="node3" class="node"><title>Node3</title>
<g id="a_node3"><a xlink:href="classshapes_1_1Square.html#ae6c8497abfebe4db204153c246e4de1b" target="_top" xlink:title="shapes.Square.perimeter">
<polygon fill="white" stroke="black" points="156.5,-0.5 156.5,-19.5 281.5,-19.5 281.5,-0.5 156.5,-0.5"/>
<text text-anchor="middle" x="219" y="-7.5" font-family="Helvetica,sans-Serif" font-size="10.00">shapes.Square.perimeter</text>
</a>
</g>
</g>
<!-- Node1&#45;&gt;Node3 -->
<g id="edge2" class="edge"><title>Node1&#45;&gt;Node3</title>
<path fill="none" stroke="midnightblue" d="M119.908,-21.871C128.569,-20.8229 137.569,-19.7336 146.451,-18.6588"/>
<polygon fill="midnightblue" stroke="midnightblue" points="146.896,-22.1306 156.403,-17.4545 146.055,-15.1813 146.896,-22.1306"/>
</g>
</g>
</svg>
