<?xml version="1.0" encoding="UTF-8" standalone="no"?>
<!DOCTYPE svg PUBLIC "-//W3C//DTD SVG 1.1//EN"
 "http://www.w3.org/Graphics/SVG/1.1/DTD/svg11.dtd">
<!-- Generated by graphviz version 2.36.0 (20140111.2315)
 -->
<!-- Title: Graphical Class Hierarchy Pages: 1 -->
<svg width="474pt" height="123pt"
 viewBox="0.00 0.00 474.00 123.00" xmlns="http://www.w3.org/2000/svg" xmlns:xlink="http://www.w3.org/1999/xlink">
<g id="graph0" class="graph" transform="scale(1 1) rotate(0) translate(4 119)">
<title>Graphical Class Hierarchy</title>
<polygon fill="white" stroke="none" points="-4,4 -4,-119 470,-119 470,4 -4,4"/>
<!-- Node1 -->
<g id="node1" class="node"><title>Node1</title>
<polygon fill="white" stroke="#bfbfbf" points="0,-57.5 0,-76.5 60,-76.5 60,-57.5 0,-57.5"/>
<text text-anchor="middle" x="30" y="-64.5" font-family="Helvetica,sans-Serif" font-size="10.00">Cloneable</text>
</g>
<!-- Node2 -->
<g id="node2" class="node"><title>Node2</title>
<g id="a_node2"><a xlink:href="classshapes_1_1Shape.html" target="_top" xlink:title="shapes.Shape">
<polygon fill="white" stroke="black" points="96.5,-57.5 96.5,-76.5 175.5,-76.5 175.5,-57.5 96.5,-57.5"/>
<text text-anchor="middle" x="136" y="-64.5" font-family="Helvetica,sans-Serif" font-size="10.00">shapes.Shape</text>
</a>
</g>
</g>
<!-- Node1&#45;&gt;Node2 -->
<g id="edge1" class="edge"><title>Node1&#45;&gt;Node2</title>
<path fill="none" stroke="midnightblue" d="M70.3086,-67C78.808,-67 87.7891,-67 96.2662,-67"/>
<polygon fill="midnightblue" stroke="midnightblue" points="70.2466,-63.5001 60.2466,-67 70.2465,-70.5001 70.2466,-63.5001"/>
</g>
<!-- Node3 -->
<g id="node3" class="node"><title>Node3</title>
<g id="a_node3"><a xlink:href="classshapes_1_1Circle.html" target="_top" xlink:title="shapes.Circle">
<polygon fill="white" stroke="black" points="216.5,-95.5 216.5,-114.5 293.5,-114.5 293.5,-95.5 216.5,-95.5"/>
<text text-anchor="middle" x="255" y="-102.5" font-family="Helvetica,sans-Serif" font-size="10.00">shapes.Circle</text>
</a>
</g>
</g>
<!-- Node2&#45;&gt;Node3 -->
<g id="edge2" class="edge"><title>Node2&#45;&gt;Node3</title>
<path fill="none" stroke="midnightblue" d="M176.042,-79.6804C191.851,-84.8148 209.799,-90.6441 224.485,-95.4141"/>
<polygon fill="midnightblue" stroke="midnightblue" points="177.116,-76.3493 166.524,-76.589 174.954,-83.0069 177.116,-76.3493"/>
</g>
<!-- Node4 -->
<g id="node4" class="node"><title>Node4</title>
<g id="a_node4"><a xlink:href="classshapes_1_1Square.html" target="_top" xlink:title="shapes.Square">
<polygon fill="white" stroke="black" points="214,-57.5 214,-76.5 296,-76.5 296,-57.5 214,-57.5"/>
<text text-anchor="middle" x="255" y="-64.5" font-family="Helvetica,sans-Serif" font-size="10.00">shapes.Square</text>
</a>
</g>
</g>
<!-- Node2&#45;&gt;Node4 -->
<g id="edge3" class="edge"><title>Node2&#45;&gt;Node4</title>
<path fill="none" stroke="midnightblue" d="M185.925,-67C195.21,-67 204.825,-67 213.802,-67"/>
<polygon fill="midnightblue" stroke="midnightblue" points="185.634,-63.5001 175.634,-67 185.634,-70.5001 185.634,-63.5001"/>
</g>
<!-- Node5 -->
<g id="node5" class="node"><title>Node5</title>
<g id="a_node5"><a xlink:href="classshapes_1_1Triangle.html" target="_top" xlink:title="shapes.Triangle">
<polygon fill="white" stroke="black" points="212,-19.5 212,-38.5 298,-38.5 298,-19.5 212,-19.5"/>
<text text-anchor="middle" x="255" y="-26.5" font-family="Helvetica,sans-Serif" font-size="10.00">shapes.Triangle</text>
</a>
</g>
</g>
<!-- Node2&#45;&gt;Node5 -->
<g id="edge4" class="edge"><title>Node2&#45;&gt;Node5</title>
<path fill="none" stroke="midnightblue" d="M176.042,-54.3196C191.851,-49.1852 209.799,-43.3559 224.485,-38.5859"/>
<polygon fill="midnightblue" stroke="midnightblue" points="174.954,-50.9931 166.524,-57.411 177.116,-57.6507 174.954,-50.9931"/>
</g>
<!-- Node6 -->
<g id="node6" class="node"><title>Node6</title>
<g id="a_node6"><a xlink:href="classshapes_1_1EquilateralTriangle.html" target="_top" xlink:title="shapes.EquilateralTriangle">
<polygon fill="white" stroke="black" points="334.5,-38.5 334.5,-57.5 465.5,-57.5 465.5,-38.5 334.5,-38.5"/>
<text text-anchor="middle" x="400" y="-45.5" font-family="Helvetica,sans-Serif" font-size="10.00">shapes.EquilateralTriangle</text>
</a>
</g>
</g>
<!-- Node5&#45;&gt;Node6 -->
<g id="edge5" class="edge"><title>Node5&#45;&gt;Node6</title>
<path fill="none" stroke="midnightblue" d="M308.256,-35.943C316.744,-37.0708 325.623,-38.2506 334.364,-39.412"/>
<polygon fill="midnightblue" stroke="midnightblue" points="308.505,-32.4455 298.131,-34.5979 307.583,-39.3846 308.505,-32.4455"/>
</g>
<!-- Node7 -->
<g id="node7" class="node"><title>Node7</title>
<g id="a_node7"><a xlink:href="classshapes_1_1RightTriangle.html" target="_top" xlink:title="shapes.RightTriangle">
<polygon fill="white" stroke="black" points="345.5,-0.5 345.5,-19.5 454.5,-19.5 454.5,-0.5 345.5,-0.5"/>
<text text-anchor="middle" x="400" y="-7.5" font-family="Helvetica,sans-Serif" font-size="10.00">shapes.RightTriangle</text>
</a>
</g>
</g>
<!-- Node5&#45;&gt;Node7 -->
<g id="edge6" class="edge"><title>Node5&#45;&gt;Node7</title>
<path fill="none" stroke="midnightblue" d="M308.122,-22.0747C320.282,-20.459 333.252,-18.7358 345.472,-17.1121"/>
<polygon fill="midnightblue" stroke="midnightblue" points="307.583,-18.6154 298.131,-23.4021 308.505,-25.5545 307.583,-18.6154"/>
</g>
</g>
</svg>
