<?xml version="1.0" encoding="UTF-8" standalone="no"?>
<!DOCTYPE svg PUBLIC "-//W3C//DTD SVG 1.1//EN"
 "http://www.w3.org/Graphics/SVG/1.1/DTD/svg11.dtd">
<!-- Generated by graphviz version 2.36.0 (20140111.2315)
 -->
<!-- Title: shapes.ShapeFactory Pages: 1 -->
<svg width="168pt" height="222pt"
 viewBox="0.00 0.00 168.00 222.00" xmlns="http://www.w3.org/2000/svg" xmlns:xlink="http://www.w3.org/1999/xlink">
<g id="graph0" class="graph" transform="scale(1 1) rotate(0) translate(4 218)">
<title>shapes.ShapeFactory</title>
<polygon fill="white" stroke="none" points="-4,4 -4,-218 164,-218 164,4 -4,4"/>
<!-- Node1 -->
<g id="node1" class="node"><title>Node1</title>
<polygon fill="#bfbfbf" stroke="black" points="24,-0.5 24,-19.5 136,-19.5 136,-0.5 24,-0.5"/>
<text text-anchor="middle" x="80" y="-7.5" font-family="Helvetica,sans-Serif" font-size="10.00">shapes.ShapeFactory</text>
</g>
<!-- Node2 -->
<g id="node2" class="node"><title>Node2</title>
<g id="a_node2"><a xlink:href="classshapes_1_1ShapeFactory_1_1ShapePair.html" target="_top" xlink:title="shapes.ShapeFactory.ShapePair">
<polygon fill="white" stroke="black" points="0,-68.5 0,-87.5 160,-87.5 160,-68.5 0,-68.5"/>
<text text-anchor="middle" x="80" y="-75.5" font-family="Helvetica,sans-Serif" font-size="10.00">shapes.ShapeFactory.ShapePair</text>
</a>
</g>
</g>
<!-- Node2&#45;&gt;Node1 -->
<g id="edge1" class="edge"><title>Node2&#45;&gt;Node1</title>
<path fill="none" stroke="#9a32cd" stroke-dasharray="5,2" d="M80,-58.0413C80,-45.4724 80,-29.5631 80,-19.8411"/>
<polygon fill="#9a32cd" stroke="#9a32cd" points="76.5001,-58.3716 80,-68.3717 83.5001,-58.3717 76.5001,-58.3716"/>
<text text-anchor="middle" x="117" y="-41.5" font-family="Helvetica,sans-Serif" font-size="10.00"> _known_shapes</text>
</g>
<!-- Node3 -->
<g id="node3" class="node"><title>Node3</title>
<g id="a_node3"><a xlink:href="classshapes_1_1Shape.html" target="_top" xlink:title="shapes.Shape">
<polygon fill="white" stroke="black" points="40.5,-136.5 40.5,-155.5 119.5,-155.5 119.5,-136.5 40.5,-136.5"/>
<text text-anchor="middle" x="80" y="-143.5" font-family="Helvetica,sans-Serif" font-size="10.00">shapes.Shape</text>
</a>
</g>
</g>
<!-- Node3&#45;&gt;Node2 -->
<g id="edge2" class="edge"><title>Node3&#45;&gt;Node2</title>
<path fill="none" stroke="#9a32cd" stroke-dasharray="5,2" d="M80,-126.041C80,-113.472 80,-97.5631 80,-87.8411"/>
<polygon fill="#9a32cd" stroke="#9a32cd" points="76.5001,-126.372 80,-136.372 83.5001,-126.372 76.5001,-126.372"/>
<text text-anchor="middle" x="97.5" y="-109.5" font-family="Helvetica,sans-Serif" font-size="10.00"> _model</text>
</g>
<!-- Node4 -->
<g id="node4" class="node"><title>Node4</title>
<polygon fill="white" stroke="#bfbfbf" points="50,-194.5 50,-213.5 110,-213.5 110,-194.5 50,-194.5"/>
<text text-anchor="middle" x="80" y="-201.5" font-family="Helvetica,sans-Serif" font-size="10.00">Cloneable</text>
</g>
<!-- Node4&#45;&gt;Node3 -->
<g id="edge3" class="edge"><title>Node4&#45;&gt;Node3</title>
<path fill="none" stroke="midnightblue" d="M80,-183.953C80,-174.287 80,-163.031 80,-155.505"/>
<polygon fill="midnightblue" stroke="midnightblue" points="76.5001,-184.25 80,-194.25 83.5001,-184.25 76.5001,-184.25"/>
</g>
</g>
</svg>
