<?xml version="1.0" encoding="UTF-8" standalone="no"?>
<!DOCTYPE svg PUBLIC "-//W3C//DTD SVG 1.1//EN"
 "http://www.w3.org/Graphics/SVG/1.1/DTD/svg11.dtd">
<!-- Generated by graphviz version 2.36.0 (20140111.2315)
 -->
<!-- Title: shapes.RightTriangle.RightTriangle Pages: 1 -->
<svg width="318pt" height="66pt"
 viewBox="0.00 0.00 318.00 66.00" xmlns="http://www.w3.org/2000/svg" xmlns:xlink="http://www.w3.org/1999/xlink">
<g id="graph0" class="graph" transform="scale(1 1) rotate(0) translate(4 62)">
<title>shapes.RightTriangle.RightTriangle</title>
<polygon fill="white" stroke="none" points="-4,4 -4,-62 314,-62 314,4 -4,4"/>
<!-- Node1 -->
<g id="node1" class="node"><title>Node1</title>
<polygon fill="#bfbfbf" stroke="black" points="0.5,-14 0.5,-44 135.5,-44 135.5,-14 0.5,-14"/>
<text text-anchor="start" x="8.5" y="-32" font-family="Helvetica,sans-Serif" font-size="10.00">shapes.RightTriangle.Right</text>
<text text-anchor="middle" x="68" y="-21" font-family="Helvetica,sans-Serif" font-size="10.00">Triangle</text>
</g>
<!-- Node2 -->
<g id="node2" class="node"><title>Node2</title>
<g id="a_node2"><a xlink:href="classshapes_1_1RightTriangle.html#ae7d867d384bf04743c5ae65b572ca1c7" target="_top" xlink:title="shapes.RightTriangle.base">
<polygon fill="white" stroke="black" points="174.5,-38.5 174.5,-57.5 307.5,-57.5 307.5,-38.5 174.5,-38.5"/>
<text text-anchor="middle" x="241" y="-45.5" font-family="Helvetica,sans-Serif" font-size="10.00">shapes.RightTriangle.base</text>
</a>
</g>
</g>
<!-- Node1&#45;&gt;Node2 -->
<g id="edge1" class="edge"><title>Node1&#45;&gt;Node2</title>
<path fill="none" stroke="midnightblue" d="M135.603,-36.4003C145.068,-37.452 154.859,-38.5399 164.479,-39.6088"/>
<polygon fill="midnightblue" stroke="midnightblue" points="164.096,-43.0877 174.422,-40.7135 164.87,-36.1305 164.096,-43.0877"/>
</g>
<!-- Node3 -->
<g id="node3" class="node"><title>Node3</title>
<g id="a_node3"><a xlink:href="classshapes_1_1RightTriangle.html#a522dab3fb54f3b8c488579abdb7eef7a" target="_top" xlink:title="shapes.RightTriangle.height">
<polygon fill="white" stroke="black" points="172,-0.5 172,-19.5 310,-19.5 310,-0.5 172,-0.5"/>
<text text-anchor="middle" x="241" y="-7.5" font-family="Helvetica,sans-Serif" font-size="10.00">shapes.RightTriangle.height</text>
</a>
</g>
</g>
<!-- Node1&#45;&gt;Node3 -->
<g id="edge2" class="edge"><title>Node1&#45;&gt;Node3</title>
<path fill="none" stroke="midnightblue" d="M135.603,-21.5997C144.163,-20.6486 152.989,-19.6679 161.714,-18.6984"/>
<polygon fill="midnightblue" stroke="midnightblue" points="162.336,-22.1509 171.888,-17.568 161.563,-15.1938 162.336,-22.1509"/>
</g>
</g>
</svg>
