<?xml version="1.0" encoding="UTF-8" standalone="no"?>
<!DOCTYPE svg PUBLIC "-//W3C//DTD SVG 1.1//EN"
 "http://www.w3.org/Graphics/SVG/1.1/DTD/svg11.dtd">
<!-- Generated by graphviz version 2.36.0 (20140111.2315)
 -->
<!-- Title: shapes.Triangle.toString Pages: 1 -->
<svg width="296pt" height="66pt"
 viewBox="0.00 0.00 296.00 66.00" xmlns="http://www.w3.org/2000/svg" xmlns:xlink="http://www.w3.org/1999/xlink">
<g id="graph0" class="graph" transform="scale(1 1) rotate(0) translate(4 62)">
<title>shapes.Triangle.toString</title>
<polygon fill="white" stroke="none" points="-4,4 -4,-62 292,-62 292,4 -4,4"/>
<!-- Node1 -->
<g id="node1" class="node"><title>Node1</title>
<polygon fill="#bfbfbf" stroke="black" points="0,-19.5 0,-38.5 122,-38.5 122,-19.5 0,-19.5"/>
<text text-anchor="middle" x="61" y="-26.5" font-family="Helvetica,sans-Serif" font-size="10.00">shapes.Triangle.toString</text>
</g>
<!-- Node2 -->
<g id="node2" class="node"><title>Node2</title>
<g id="a_node2"><a xlink:href="classshapes_1_1Shape.html#a5d3d0dfd465d3fd7030ac1ae63c7aabc" target="_top" xlink:title="shapes.Shape.getFormat">
<polygon fill="white" stroke="black" points="160,-38.5 160,-57.5 286,-57.5 286,-38.5 160,-38.5"/>
<text text-anchor="middle" x="223" y="-45.5" font-family="Helvetica,sans-Serif" font-size="10.00">shapes.Shape.getFormat</text>
</a>
</g>
</g>
<!-- Node1&#45;&gt;Node2 -->
<g id="edge1" class="edge"><title>Node1&#45;&gt;Node2</title>
<path fill="none" stroke="midnightblue" d="M122.033,-36.129C131.085,-37.2038 140.501,-38.322 149.776,-39.4234"/>
<polygon fill="midnightblue" stroke="midnightblue" points="149.418,-42.9054 159.761,-40.6092 150.244,-35.9543 149.418,-42.9054"/>
</g>
<!-- Node3 -->
<g id="node3" class="node"><title>Node3</title>
<g id="a_node3"><a xlink:href="classshapes_1_1Triangle.html#a3a6ba873e1f16a6fcd040cc9b6aa27fe" target="_top" xlink:title="shapes.Triangle.perimeter">
<polygon fill="white" stroke="black" points="158.5,-0.5 158.5,-19.5 287.5,-19.5 287.5,-0.5 158.5,-0.5"/>
<text text-anchor="middle" x="223" y="-7.5" font-family="Helvetica,sans-Serif" font-size="10.00">shapes.Triangle.perimeter</text>
</a>
</g>
</g>
<!-- Node1&#45;&gt;Node3 -->
<g id="edge2" class="edge"><title>Node1&#45;&gt;Node3</title>
<path fill="none" stroke="midnightblue" d="M122.033,-21.871C130.666,-20.8459 139.631,-19.7813 148.489,-18.7295"/>
<polygon fill="midnightblue" stroke="midnightblue" points="148.903,-22.2049 158.421,-17.55 148.078,-15.2538 148.903,-22.2049"/>
</g>
</g>
</svg>
