<?xml version="1.0" encoding="UTF-8" standalone="no"?>
<!DOCTYPE svg PUBLIC "-//W3C//DTD SVG 1.1//EN"
 "http://www.w3.org/Graphics/SVG/1.1/DTD/svg11.dtd">
<!-- Generated by graphviz version 2.36.0 (20140111.2315)
 -->
<!-- Title: utilities.Utilities.projectHeading Pages: 1 -->
<svg width="306pt" height="77pt"
 viewBox="0.00 0.00 306.00 77.00" xmlns="http://www.w3.org/2000/svg" xmlns:xlink="http://www.w3.org/1999/xlink">
<g id="graph0" class="graph" transform="scale(1 1) rotate(0) translate(4 73)">
<title>utilities.Utilities.projectHeading</title>
<polygon fill="white" stroke="none" points="-4,4 -4,-73 302,-73 302,4 -4,4"/>
<!-- Node1 -->
<g id="node1" class="node"><title>Node1</title>
<polygon fill="#bfbfbf" stroke="black" points="0,-22 0,-52 116,-52 116,-22 0,-22"/>
<text text-anchor="start" x="8" y="-40" font-family="Helvetica,sans-Serif" font-size="10.00">utilities.Utilities.project</text>
<text text-anchor="middle" x="58" y="-29" font-family="Helvetica,sans-Serif" font-size="10.00">Heading</text>
</g>
<!-- Node2 -->
<g id="node2" class="node"><title>Node2</title>
<g id="a_node2"><a xlink:href="classutilities_1_1Utilities.html#aad0367a70cee20da9e432d5f1e995f55" target="_top" xlink:title="utilities.Utilities.horizontalLine">
<polygon fill="white" stroke="black" points="152,-49.5 152,-68.5 298,-68.5 298,-49.5 152,-49.5"/>
<text text-anchor="middle" x="225" y="-56.5" font-family="Helvetica,sans-Serif" font-size="10.00">utilities.Utilities.horizontalLine</text>
</a>
</g>
</g>
<!-- Node1&#45;&gt;Node2 -->
<g id="edge1" class="edge"><title>Node1&#45;&gt;Node2</title>
<path fill="none" stroke="midnightblue" d="M116.246,-44.6328C124.767,-45.7689 133.686,-46.9581 142.588,-48.145"/>
<polygon fill="midnightblue" stroke="midnightblue" points="142.234,-51.6288 152.609,-49.4812 143.159,-44.6902 142.234,-51.6288"/>
</g>
<!-- Node3 -->
<g id="node3" class="node"><title>Node3</title>
<g id="a_node3"><a xlink:href="classutilities_1_1Utilities.html#a480f7eb4707ff60183ee95387126432c" target="_top" xlink:title="utilities.Utilities.centered\lTitle">
<polygon fill="white" stroke="black" points="163,-0 163,-30 287,-30 287,-0 163,-0"/>
<text text-anchor="start" x="171" y="-18" font-family="Helvetica,sans-Serif" font-size="10.00">utilities.Utilities.centered</text>
<text text-anchor="middle" x="225" y="-7" font-family="Helvetica,sans-Serif" font-size="10.00">Title</text>
</a>
</g>
</g>
<!-- Node1&#45;&gt;Node3 -->
<g id="edge2" class="edge"><title>Node1&#45;&gt;Node3</title>
<path fill="none" stroke="midnightblue" d="M116.246,-29.3672C128.026,-27.7965 140.567,-26.1245 152.772,-24.4971"/>
<polygon fill="midnightblue" stroke="midnightblue" points="153.471,-27.9349 162.921,-23.1439 152.546,-20.9963 153.471,-27.9349"/>
</g>
</g>
</svg>
