<?xml version="1.0" encoding="UTF-8" standalone="no"?>
<!DOCTYPE svg PUBLIC "-//W3C//DTD SVG 1.1//EN"
 "http://www.w3.org/Graphics/SVG/1.1/DTD/svg11.dtd">
<!-- Generated by graphviz version 2.36.0 (20140111.2315)
 -->
<!-- Title: RunShapes.main Pages: 1 -->
<svg width="278pt" height="77pt"
 viewBox="0.00 0.00 278.00 77.00" xmlns="http://www.w3.org/2000/svg" xmlns:xlink="http://www.w3.org/1999/xlink">
<g id="graph0" class="graph" transform="scale(1 1) rotate(0) translate(4 73)">
<title>RunShapes.main</title>
<polygon fill="white" stroke="none" points="-4,4 -4,-73 274,-73 274,4 -4,4"/>
<!-- Node1 -->
<g id="node1" class="node"><title>Node1</title>
<polygon fill="#bfbfbf" stroke="black" points="0,-27.5 0,-46.5 92,-46.5 92,-27.5 0,-27.5"/>
<text text-anchor="middle" x="46" y="-34.5" font-family="Helvetica,sans-Serif" font-size="10.00">RunShapes.main</text>
</g>
<!-- Node2 -->
<g id="node2" class="node"><title>Node2</title>
<g id="a_node2"><a xlink:href="classRunShapes.html#ac8b4b907a27889cc5386906ed8863d19" target="_top" xlink:title="RunShapes.addShape">
<polygon fill="white" stroke="black" points="142,-49.5 142,-68.5 256,-68.5 256,-49.5 142,-49.5"/>
<text text-anchor="middle" x="199" y="-56.5" font-family="Helvetica,sans-Serif" font-size="10.00">RunShapes.addShape</text>
</a>
</g>
</g>
<!-- Node1&#45;&gt;Node2 -->
<g id="edge1" class="edge"><title>Node1&#45;&gt;Node2</title>
<path fill="none" stroke="midnightblue" d="M92.305,-43.6007C104.696,-45.4061 118.387,-47.4007 131.691,-49.3391"/>
<polygon fill="midnightblue" stroke="midnightblue" points="131.361,-52.8279 141.761,-50.8063 132.371,-45.9011 131.361,-52.8279"/>
</g>
<!-- Node3 -->
<g id="node3" class="node"><title>Node3</title>
<g id="a_node3"><a xlink:href="classshapes_1_1ShapeFactory.html#a25604ad25132e7455218d8fc124ab3a8" target="_top" xlink:title="shapes.ShapeFactory.create\lShape">
<polygon fill="white" stroke="black" points="128,-0 128,-30 270,-30 270,-0 128,-0"/>
<text text-anchor="start" x="136" y="-18" font-family="Helvetica,sans-Serif" font-size="10.00">shapes.ShapeFactory.create</text>
<text text-anchor="middle" x="199" y="-7" font-family="Helvetica,sans-Serif" font-size="10.00">Shape</text>
</a>
</g>
</g>
<!-- Node1&#45;&gt;Node3 -->
<g id="edge2" class="edge"><title>Node1&#45;&gt;Node3</title>
<path fill="none" stroke="midnightblue" d="M92.305,-30.3993C100.447,-29.213 109.15,-27.945 117.936,-26.665"/>
<polygon fill="midnightblue" stroke="midnightblue" points="118.474,-30.1236 127.865,-25.2183 117.465,-23.1967 118.474,-30.1236"/>
</g>
</g>
</svg>
